<mxfile host="65bd71144e">
    <diagram id="lwoN2R5y6f6A6MZxXeF8" name="Page-1">
        <mxGraphModel dx="1709" dy="2843" grid="1" gridSize="10" guides="1" tooltips="1" connect="1" arrows="1" fold="1" page="1" pageScale="1" pageWidth="850" pageHeight="1100" math="0" shadow="0">
            <root>
                <mxCell id="0"/>
                <mxCell id="1" parent="0"/>
                <mxCell id="55" value="" style="rounded=1;whiteSpace=wrap;html=1;arcSize=5;strokeColor=none;" vertex="1" parent="1">
                    <mxGeometry y="-40" width="1800" height="600" as="geometry"/>
                </mxCell>
                <mxCell id="56" value="" style="rounded=1;whiteSpace=wrap;html=1;fontSize=16;arcSize=7;fillColor=none;" vertex="1" parent="1">
                    <mxGeometry x="309.33000000000004" y="360" width="320" height="140" as="geometry"/>
                </mxCell>
                <mxCell id="57" value="" style="rounded=1;whiteSpace=wrap;html=1;fontSize=16;strokeWidth=2;dashed=1;fillColor=none;dashPattern=1 4;arcSize=9;" vertex="1" parent="1">
                    <mxGeometry x="289.33000000000004" width="360" height="520" as="geometry"/>
                </mxCell>
                <mxCell id="58" style="edgeStyle=none;curved=1;rounded=0;orthogonalLoop=1;jettySize=auto;html=1;fontSize=12;startSize=8;endSize=8;endArrow=block;endFill=1;strokeWidth=3;dashed=1;entryX=0;entryY=0;entryDx=0;entryDy=0;" edge="1" parent="1" source="59" target="56">
                    <mxGeometry relative="1" as="geometry">
                        <mxPoint x="239.33000000000004" y="310" as="sourcePoint"/>
                    </mxGeometry>
                </mxCell>
                <mxCell id="59" value="" style="shape=image;verticalLabelPosition=bottom;labelBackgroundColor=default;verticalAlign=top;aspect=fixed;imageAspect=0;image=https://conserto.pro/wp-content/uploads/2022/11/microsoftteams-image-56-265x300.png;" vertex="1" parent="1">
                    <mxGeometry x="49.330000000000155" y="130" width="141.34" height="160" as="geometry"/>
                </mxCell>
                <mxCell id="60" value="&lt;font face=&quot;Verdana&quot; style=&quot;font-size: 24px;&quot;&gt;&lt;b&gt;OpenAI &lt;br&gt;Cordex Model&lt;/b&gt;&lt;/font&gt;" style="text;html=1;strokeColor=none;fillColor=none;align=center;verticalAlign=middle;whiteSpace=wrap;rounded=0;fontSize=22;" vertex="1" parent="1">
                    <mxGeometry width="240" height="60" as="geometry"/>
                </mxCell>
                <mxCell id="61" value="&lt;font face=&quot;Verdana&quot; style=&quot;font-size: 24px;&quot;&gt;&lt;b&gt;GitHub&lt;/b&gt;&lt;/font&gt;" style="text;html=1;strokeColor=none;fillColor=none;align=center;verticalAlign=middle;whiteSpace=wrap;rounded=0;fontSize=22;" vertex="1" parent="1">
                    <mxGeometry x="289.33000000000004" width="360" height="40" as="geometry"/>
                </mxCell>
                <mxCell id="62" value="" style="dashed=0;outlineConnect=0;html=1;align=center;labelPosition=center;verticalLabelPosition=bottom;verticalAlign=top;shape=mxgraph.weblogos.github;fontSize=16;" vertex="1" parent="1">
                    <mxGeometry x="289.33000000000004" width="60" height="60" as="geometry"/>
                </mxCell>
                <mxCell id="63" style="edgeStyle=none;curved=1;rounded=0;orthogonalLoop=1;jettySize=auto;html=1;fontSize=12;startSize=8;endSize=8;endArrow=block;endFill=1;strokeWidth=3;dashed=1;entryX=0;entryY=0.5;entryDx=0;entryDy=0;" edge="1" parent="1" source="59" target="68">
                    <mxGeometry relative="1" as="geometry">
                        <mxPoint x="119.33000000000004" y="-80" as="sourcePoint"/>
                        <mxPoint x="119.33000000000004" y="30" as="targetPoint"/>
                    </mxGeometry>
                </mxCell>
                <mxCell id="64" value="" style="endArrow=block;html=1;rounded=0;fontSize=12;startSize=8;endSize=8;curved=1;endFill=1;strokeWidth=3;dashed=1;exitX=1;exitY=0.5;exitDx=0;exitDy=0;entryX=0;entryY=0.698;entryDx=0;entryDy=0;entryPerimeter=0;" edge="1" parent="1" source="73" target="75">
                    <mxGeometry relative="1" as="geometry">
                        <mxPoint x="319.33000000000004" y="1020" as="sourcePoint"/>
                        <mxPoint x="989.33" y="210" as="targetPoint"/>
                    </mxGeometry>
                </mxCell>
                <mxCell id="65" value="" style="endArrow=block;html=1;rounded=0;fontSize=12;startSize=8;endSize=8;curved=1;endFill=1;strokeWidth=3;dashed=1;entryX=1;entryY=0.25;entryDx=0;entryDy=0;" edge="1" parent="1" source="71" target="68">
                    <mxGeometry relative="1" as="geometry">
                        <mxPoint x="329.33000000000004" y="890" as="sourcePoint"/>
                        <mxPoint x="789.33" y="130" as="targetPoint"/>
                    </mxGeometry>
                </mxCell>
                <mxCell id="66" value="&lt;font face=&quot;Verdana&quot; style=&quot;font-size: 24px;&quot;&gt;&lt;b&gt;FizzBuzz Example Code&lt;/b&gt;&lt;/font&gt;" style="text;html=1;strokeColor=none;fillColor=none;align=center;verticalAlign=middle;whiteSpace=wrap;rounded=0;fontSize=22;" vertex="1" parent="1">
                    <mxGeometry x="989.33" width="780" height="40" as="geometry"/>
                </mxCell>
                <mxCell id="67" value="&lt;font face=&quot;Verdana&quot; style=&quot;font-size: 24px;&quot;&gt;&lt;b&gt;Copilot&lt;/b&gt;&lt;/font&gt;" style="text;html=1;strokeColor=none;fillColor=none;align=center;verticalAlign=middle;whiteSpace=wrap;rounded=0;fontSize=22;" vertex="1" parent="1">
                    <mxGeometry x="289.33000000000004" y="290" width="360" height="40" as="geometry"/>
                </mxCell>
                <mxCell id="68" value="" style="rounded=1;whiteSpace=wrap;html=1;fontSize=16;fillColor=none;arcSize=4;" vertex="1" parent="1">
                    <mxGeometry x="309.33000000000004" y="80" width="320" height="260" as="geometry"/>
                </mxCell>
                <mxCell id="69" value="" style="shape=image;verticalLabelPosition=bottom;labelBackgroundColor=default;verticalAlign=top;aspect=fixed;imageAspect=0;image=https://d2f0ora2gkri0g.cloudfront.net/be/95/be958a8c-7cc7-4113-8eb4-dc94832c67d9.png;" vertex="1" parent="1">
                    <mxGeometry x="364.33000000000004" y="85" width="210" height="210" as="geometry"/>
                </mxCell>
                <mxCell id="70" value="" style="endArrow=none;html=1;rounded=0;fontSize=12;startSize=8;endSize=8;curved=1;endFill=0;strokeWidth=3;dashed=1;exitX=0;exitY=0.25;exitDx=0;exitDy=0;" edge="1" parent="1" target="71">
                    <mxGeometry relative="1" as="geometry">
                        <mxPoint x="989.3299999999999" y="145" as="sourcePoint"/>
                        <mxPoint x="594.33" y="145" as="targetPoint"/>
                    </mxGeometry>
                </mxCell>
                <mxCell id="71" value="&lt;pre style=&quot;border-color: var(--border-color); font-size: 20px;&quot;&gt;&lt;font style=&quot;border-color: var(--border-color); font-size: 20px;&quot; face=&quot;Lucida Console&quot;&gt;Provide Editor context&lt;/font&gt;&lt;/pre&gt;" style="rounded=1;whiteSpace=wrap;html=1;fontSize=20;arcSize=25;fillColor=#0050ef;strokeColor=#001DBC;fontColor=#ffffff;" vertex="1" parent="1">
                    <mxGeometry x="669.33" y="125" width="280" height="40" as="geometry"/>
                </mxCell>
                <mxCell id="72" value="" style="endArrow=none;html=1;rounded=0;fontSize=12;startSize=8;endSize=8;curved=1;endFill=0;strokeWidth=3;dashed=1;exitX=1;exitY=0.75;exitDx=0;exitDy=0;entryX=0;entryY=0.5;entryDx=0;entryDy=0;" edge="1" parent="1" source="68" target="73">
                    <mxGeometry relative="1" as="geometry">
                        <mxPoint x="594.33" y="210" as="sourcePoint"/>
                        <mxPoint x="989.33" y="210" as="targetPoint"/>
                    </mxGeometry>
                </mxCell>
                <mxCell id="73" value="&lt;pre style=&quot;border-color: var(--border-color); font-size: 20px;&quot;&gt;&lt;pre style=&quot;border-color: var(--border-color); font-size: 20px;&quot;&gt;&lt;font style=&quot;border-color: var(--border-color); font-size: 20px;&quot; face=&quot;Lucida Console&quot;&gt;Provide Suggestion&lt;/font&gt;&lt;/pre&gt;&lt;/pre&gt;" style="rounded=1;whiteSpace=wrap;html=1;fontSize=20;arcSize=24;fillColor=#0050ef;strokeColor=#001DBC;fontColor=#ffffff;" vertex="1" parent="1">
                    <mxGeometry x="669.33" y="255" width="280" height="40" as="geometry"/>
                </mxCell>
                <mxCell id="74" value="&lt;font face=&quot;Verdana&quot; style=&quot;font-size: 24px;&quot;&gt;&lt;b&gt;Public Repositories&lt;/b&gt;&lt;/font&gt;" style="text;html=1;strokeColor=none;fillColor=none;align=center;verticalAlign=middle;whiteSpace=wrap;rounded=0;fontSize=22;" vertex="1" parent="1">
                    <mxGeometry x="309.33000000000004" y="460" width="320" height="40" as="geometry"/>
                </mxCell>
                <mxCell id="75" value="" style="shape=image;aspect=fixed;image=data:image/png,iVBORw0KGgoAAAANSUhEUgAAAw0AAAFJCAYAAADZt8GzAAABhGlDQ1BJQ0MgcHJvZmlsZQAAKJF9kT1Iw0AcxV9TpSoVQTuIiGSoTnZREcdSxSJYKG2FVh1MLv2CJg1Jiouj4Fpw8GOx6uDirKuDqyAIfoA4OzgpukiJ/0sKLWI8OO7Hu3uPu3eA0Kgw1eyKAqpmGal4TMzmVsXAK/wQ0ItBjEnM1BPpxQw8x9c9fHy9i/As73N/jn4lbzLAJxJHmW5YxBvEs5uWznmfOMRKkkJ8Tjxp0AWJH7kuu/zGueiwwDNDRiY1TxwiFosdLHcwKxkq8QxxWFE1yheyLiuctzirlRpr3ZO/MJjXVtJcpzmKOJaQQBIiZNRQRgUWIrRqpJhI0X7Mwz/i+JPkkslVBiPHAqpQITl+8D/43a1ZmJ5yk4IxoPvFtj/GgcAu0Kzb9vexbTdPAP8zcKW1/dUGMPdJer2thY+AgW3g4rqtyXvA5Q4w/KRLhuRIfppCoQC8n9E35YChW6Bvze2ttY/TByBDXS3fAAeHwESRstc93t3T2du/Z1r9/QBYbnKcCyfMfwAAAAZiS0dEAP8A/wD/oL2nkwAAAAlwSFlzAAAuIwAALiMBeKU/dgAAAAd0SU1FB+gDAgkTJIlXH9gAAAAZdEVYdENvbW1lbnQAQ3JlYXRlZCB3aXRoIEdJTVBXgQ4XAAAgAElEQVR42uy9d3Sb15Xo+/sAECAAgmDvpEiKRWKTRFK9y03NsWTLVeMyjudNkrHvzMvM3Hffje96mTcza9a6mUmyrp13b+4kdpqTieW4V9mWZBWrN4pVFBvYG0gABEi0D+8PUCQokiJAkTYln99aWEsCDs/Z3yn72/ucfc6RMjIyfAgEAoFAIBAIBALBNChEFQgEAoFAIBAIBALhNAgEAoFAIBAIBALhNAgEAoFAIBAIBALhNAgEAoFAIBAIBALhNAgEAoFAIBAIBIKFhurrKNQdsxbd4mRUgNLVjqvuAq4Rt2gNgUAgEAgEAoFAOA1g2vlTdiTZsCWlEK/wn/Yq7bLQ8+pfY+pUiRYRCAQCgUAgEAi+6U4D0SqcVcdp1D9CvNH/lU9hJDzRBbN0Gkzlf8krj+agB3qPPMrZ/DfYHXmZAy++yinVrURglbP/Hx6juPGX/Jdf14jeIhAIBAKBQCAQTsN8IqvjUWq1JFecpjshhejq45zPXENZsvIWc97DvzyWg+Pwo/zwgwwgg635omEFAoFAIBAIBILbymmwp32H3KdWkqy42eXTe7H/10fYaK+i5Rf/Sr89uBUCU3kiiT4Hve36se8O//j7HAZQiX3eAoFAIBAIBALBrfIVWNVh9G9eNYPD4MbnVONWgGQoYOmOLaJlBAKBQCAQCASCBcJXsNKQBzHjDoMkW+i71snI2DceqPuYJssWluJPJyflouco9hlyznz2n/nRUjUA+v2v8KP9Js4+/xN6f/A/eED+hL/56SeYHvhb/rghabK3ZK/kwIsWVvx0PdmT/BkHza89z88uTSzrr0bLAn85r2tVY7/9TeRR/uann4yl9++zSKH3tef52aX72P8Pj7FcN9lx6j3yKK8n/jYg7wB3q/2zCXn6Gd9n8b+UfzalTP5ndk2Q8bqcL2Rc5W9/+GvR8wUCgUAgEAgEC8lpCMRCz6s/oD7haZKWGND4RkXIf4z8XenE4wspt+ZXfsCjE4zzWNCq2BqQJuOdf+Pv3xn//3WD+vT/9UtOaVWc+ru3A1Lv4bv/uh7D4T/nZ5cyxr5VFj3Ldypf4e//3r8Zeuv3f8zOl/9PuMEon55zvPb/nOO1KQz///5BBvAD/v4GZ+iFjKv8x79+NG2I1U1leqeBxo3rydzXAR9kjJW5fpEGd+MZ0esFAoFAIBAIBCHxFYQnVUGHZ/TfvfRH/yfK719Jdu4SUvOuf9LGjl8FUJo7ZlxlmA2m8r/klQ1J9B75+ymM/XL2/8MG8ts+GzXkxwlr/2zC6UmHf3yURinDb5TPgq3ff4JS3xXe/mXVZBkf+Fv+aqmHxrd/fNOTn24u09t8VO0iJfcvAp69jFxdCxf+1xXR6wUCgUAgEAgEC81pgNSPP+DskAdZBq9GjfomaSXZQvMXn8yDFOX83/fnEtU+2SkAyHx2L8t1LXz5Lx9M+m1kwHTDN21Y7RIxcfeF7rg88LfsTLZN4xTs4V82JuGt/A//qslNmEmmoxUmBlPzeGTY77BtKskgqv1qkCsjAoFAIBAIBALBOF+JBam0vws/fZeLgGnFixRe/6HjPFdb/LsbwnrOMmCywnALPpc05zJkPruXUt+VKUN+TOV/yQ+Xemh+7Ye8ro2dx5rwOwW9hx+dEP50na3f30R+2yf8zRzcCZFx7jz19z82GqL0IOsXydS/9XsgVvR6gUAgEAgEAkFIfL1nkqaUUbzUwPBQPNnF6fgspnlxGEzlf8kz04b8+FcgwoOY3R/Pr4xcnZ3Wy8fHvvNGJbHGI48nSo1AP6VTMPVKh38FomnKlY7ZyXSOf7nQSUruX2AqLyPf18D5c9GixwsEAoFAIBAIFr7TEN/dSac87hi4InNILkyGgY55KtF/+dt0TsHN9hdcR1n0LP95l2mCk2GwN44Z4UcrTNj0RWx6oG28zI0TT2zKfPafp3UKbr7Xwr/J+d9++PQEp2QmmQAy3mmgLi2ffyjOQN10+hZvxxYIBAKBQCAQfFP5ygPctR2/pO3HX9CRX4JWDWBHee0orQPD81Le1u9vItvnhaJn+dGPArwleyW/uBDHzmQvMkU89JN/46GxXyceueqtPET7qtf50Rbf6N9e4cCLr44Z4Rnnfs6vSv6Zv9ryR360BcDEl7+vJ/Hx1DGn4IdL1UAGK1/+CSsD5Os98mvaV+Wix4d+7O/9TH3kanAy+Xmb2o4fs7OgibPPXwGxn0EgEAgEAoFAMAukjIwMn6iG24nx41r/SxB7H7Z+/8djd1YIBAKBQCAQCASzQcSr3NHsYUmKl476fxdVIRAIBAKBQCAQToNgMpnPriRnqJKj76SJyhAIBAKBQCAQzBoR5H4HYir/S155NAc9Jk4/77/5WiAQCAQCgUAgmC1iT4NAIBAIBAKBQCC4KSI8SSAQCAQCgUAgEAinQSAQCAQCgUAgEAinQSAQCAQCgUAgEAinQSAQCAQCgUAgEAinQSAQCAQCgUAgECw4lEaj8YcLX0w96buf4vGtq1g0dJSafvWClLKrYDEPPaNk+ISd+sIc9v2ZF+tJJ3YpFDdOhWrnEjY8mEXxlnTy10WRZuin9ZoP+Wt6LldaHMW7lXgqXIxI81VKNJkvLmfDxjTyNk38ZGsbuNagmpR2TfiN388dphW57P92XoAcyeQWKqG3H7NFueBHjK0oiy3P5rF8czp5m5y4vrAzKElfkzQavLtzKVW30tUTNm2q7u3LeexR79csa3Aye/Zv5NGiFqor50JOBe61mWzI6aOt+c6ax/GPozjU9V30DCkR3P64YyLJfNyA8bwd69c+ToNnZv3yVY752wvP/o08tLmX7tOeebQBBLcDt8UB/q7l29mZuvBFdSVoMfQ00yNJeFMMGHoa6ZFCaw7P46V8K6mHlo+ucqpFiVyUwvricAw+OwNf02AdKEojP6aOzq+gLN/lL/n02ESFLTtvdBIHML10ljbnfDuPFtrfqKKqKwxZG47hvkLWP6FC8fNr1JkXsgFkZMnOJAw1Jzl0RIkHGVnxdWp6HYuXRxHRdnO3N/5IJQdPer9mWUOTea4cFGN5Csa6Wu60q3PSqho42CjhtYWJt+0dQueiRPYmD1J5m8k9s375Kse8QHB7suCntUaSNvPkyjgcre0MLXBZExKNjHTb8QCJiQZsvSOhKeMVmezItNP2p6tcrvDgsjjxnGji8K+GsX1DvHuvy43L4p3w8UwxtSFP8/0cS4P7ugxddnreaaFNmUh6kXNB16EzIYIktQ9Hix2HxYvL4sNzOyijEc9tI6sgyDZ1ybgsXrzCDhMI/SIQ3PYs8GktJYn5GUS2f8pvzqazJ30hy6olJgEG6z2Alvg4N9ZL3pByiC9IJMJygXNNapAClZ0coOi06F4oZVPdId50lrB9jZFIlQ+GrnLmp5axlY2RvGTKd6aRqVeCPMTA+SrOHvThCsgn7NFMVmYYiFErQHYy1FLHlQN2+t3+TDz7N7In0w2Am2Wsf9H/l2GWyxx5aXhs5cOrjyBpXy5lKRpUCi9yax1n/zRIr33ufdJAmTxnv+Djg5obUkST+WI+RZOuLGyg8h97aFZIQaaZojeOyDimKCvt/c85fkkPwHBKClufjWDoF1VUdoWNtde2yBv7gpnmX4aSZmZMK3L53s5Y/398wK672L1r6me/uczRZL6YgO6PLQxuW0ZpnITk6aHtzWtcrJ/Ypp6kGPL3ZpMbo0KFF19/K1f+ox3ToHI03wzifDfKA4Mf3Fj+aLpp20CF675s7l4eRaRKAUMdNH7YTHWAPJ79G9nde4w/qQt5qNiACjf2y+c48aEU0O9vTrAyXx9D9t2Lx8pyVZ/nyDuMlTWcEkfZzmRS4/VoFCC7+hk8cY0zX143XAL7oRdWbmb3Sm7St2+uf+ZGL4A7KoKUB8bHM0PdNL3bRFXT+OrazPkEPttU/ViD9rvlbO86zltvBba1kdT/XEDhmcMcPBIetH5xJsRQ8NB4P2TITOfhOs5XqEKqw5l0YvDjcJCKt/Wk3p9ArNKHr7+Zy7/pps2hCKms63ld+YkT39N5FMSoUMlOrIdPcvRUOKBAcU8uK0sMxIerQHbj7G2i+kAf7RbF2LjYJTXTn5FKsreHq5/aMWzPIsnXR/Ova6jsGG0XhZqwh3PZkm1Ao/AiDZi4cqCD5l5/u3dvX863y8JHJYul6L8tpmgqvTlDPsE9182Rw+NZ8ncZRL9xnNO12km/W7+1imcSL/Lxv7vpn0G/zOWYD4bBgmS2bEomKVo9Or7MtH1+lUuVypDfhTPpu+7ty/lOTt2E97Vn/0Yel49y4A/S6LOrcF1NICVXQqq+wiF1EVtzJLh6joMHAse0nvC9uWxfqht99ksce8/LcMCEQDB2RzB6SiCchlnP9FqO/Z5X8OKIW5gew0SDxws77mb3jtEf92xj956bG6KByig+zoeqx8FAEHGinswi9irMVL/RQKddg2azlhifDySJroLFPLk3BtXVKr48OoI9KYPiXSvZ4jnBwUPXX9xqkpWdtL/fwLkOL974SFLuW8bWx87y9m89eICwt7/koArsm0t4OLORk7+2MYCEJMs4r4uoMJL53ULKXE1cfr2XZreetPsL2fD0ZY78zDHnIVV+meLIfCGL7ClT+EOXOgK6uGLfcu6N8uIYq9dg0tzwklKr8d6bQp63m/rKUIy5YRy/OsXBMftGgXNbCfcvGcEzZkAEk2Zm/KEgjTiSU9myLwXFoSOcqtLDrMKTjCx6MA3tR+f5uEdL3ENFrNnZTetP7fRJ431/4zMZJHfVcPE3FrrcerRl6eRmNmC6pEfb1cWZl7pR4W+vpDF5wDesG+/5o+mcm0vYWzzNi/auIv6sHAZPnOPQxXDc2/O4b184ilcnGqOqsjLur73E6f9PRc/mJexdUURR5UUumIILZQtWZoDhzGLur70wXlZxIUUXx8syx4RhMJm4+IkVq1WNlJdE8T0rWec5wtEzuoB+qMX4TAmrGo6PhebJswy9u1W9IIdHk//cEkpczVx+vZf2PjW+0mTKsnzQ5C8jOP3if7ZTRbk8t2UqSZ3U1Vi4Z2U8Kb5eOkbHnSXbyBZ1L+0VYSHoFz2pTyyhwFo11g/1y5IpiAm19mbWicGTQeFdZprfOc8peyQ5e/NZtX8Q87+7RyceQikrktTHDMj1lzh91ocjM5Gl+us6KAx91BDmT5u50uJh2KgjbutS1j/jxBkwVnVRw5z/bQ29DxWy7K5Wan57kdrtpexcf43KA34nTvUXpeyI6KTlgzqqejQY7itk41MSnpc7aXNKo+E9PkxFuTy3xUbtS52YJOkG/TJzPsE910yrBkP02jRkpgC1k82amGQ1nnY7DtQz6pe5HPNBGV3GcOS6as5UuxgaCcezKp27Hiih1BpaPnOh70anK9F3nONP/YU8tGY56ytP8en72ay8P5f8uGqu9PnNRLcxh3JHJadfcWDOyGbtPSvZPDw+uRGcXphZTwkW+IrdgpdQXthL236Fc5bXDvYhu5qoeOkMvzgyiMpWw9mXz3Dw5T7agjLYwjEaZIYHggt90Rmt1L3aTWuDB0+XHfsf+2hVSICKtI3JGPor+OKAA3O3jPNyM2+eGkG7LJaEsdl1C6bfD9JS4/KHD1wb4OzhHiwZMaTJ/kQ+uz80x+zyIckuXIP+UAOnbXyK3rQpnWWabup/10ZTgwefyULDH5sxxeSQleUKuT5VKzez+wdrAj7xZMrj5fllct10ZkcOCG26VpDF3QkDNP6he8IsRjBpIIbMb29k9w/W8K2/L+XBpTaafj+L/Qy28bJ6Y5PZWCgz+FEDtVZlaGlmGsyjoSBuq9/okB3X85zNkrwCxZUazld48HTZuHS4B3tEKsnx4zmp1i8izV7N6VcHaWsFT5cd2we1XKgYnZmT5dF69rfXuDxe3K7AxvCnM7t80zowhWVawmovcPyIjMPiwH2ggXPOOHLXTpz3UDlqqXjTy4DFSdi7zVx0RxKXE8KKX7AyA2G2Si7epKzUyk5OH7TQ1+rDZXHiPNvCkToViYu1k/qhXZYmhObNNvTuVvVC27p0CsJaqfpFO00NHlwWB+7DDZw6ohozyILTL6PP5pi+7pMq+2nXpJCU5R77TipKInqwnY5+ZQj6RU1EhMzAhY6xfmj55Bonj4Q6JzazTgxhegP7mUpqarz4TAOce68Dc2IeSzJcsygrnsi205z6zMOAxYvzcgeXvpTGnC/bgXbqK5w4LF58Jhsd77TQbEgjKXm8Xr3NHfS1WmjoVaLpaKO+1UlD6zCeqDB0QFdBGlvjXHR/XMPlCn/fGfhtHeeVWWSvcIwa6h5//3R4AReewcn6JZh8gnuumSdjOrskomK1o6tROqJWqvGb+AZSYl30NXmC0y9zOOaDIeJkExWHRzB3y7gsDuRPGzjcF03CEl/o78tb1Xf+9Qi6zsrINQP0SRZ6zrpxXh6gDQO6OHdAulZqX7PS0y3jOXuNDyplNIXxo2M+eL1wcz0lECsNdzqyjGyBIWME+o4GTFYfXqMOdaeFbsv8Fatp66LZOZXPZyAt3oP16AAOxmdJYq+a6V8XS4xxgJ5RQ9RVls3GLTH+Ze0xlESktEOQITEpqdGoe+poCjCk1X2DNNqyKMvwQHNoMyeTN0LPfhOvPS2FB7dG4jp1YnwJPqQ0EzdCazbnsvWJpUi/rpo2v5uum+mjKX8wlbi6U7x/KWzWab4qLB0uwC+DcXAYmxSBT3Vd++tJTJeQr/bR47uhjefYyb++R6O3YRi47pDYaOtWQqqOaN/40ntYzxB9Y7NVLgaGFShU8zM3ouoPXBWcoqzRMI2NmXp0Y9/LeCwTZV44eiGMzEWRhHdU0XTjCpccun6ZcV6/z0x1fzb3FMGFZn+fys5WMVw9yICkCUG/uBgaUhC3KYc8Zx+NTa5ZO11zoRP9mDEH6D5jo41mUkiLc8HoLHDwZZlpq5i+D4/kJbNyRwqpEWHjL3QfDCa5xvJxjRrM/f02iJa5Hv/q06jQ+NxIGQa0rhaqKsPHQ2NlC22dKlYl64J+6tDyuflzzURPtwVXSQTRviEur8zmgfV2rtVd43K4jnhFL+ZWzVc/5oN6D0SQtG8xy1O0aMb+1IPWGvrq4tzoOxfuYQltxzBdGIiQxx3fsPBxZR5mMdM3ohhr18HWAbzFBozhg/Q4Q9ML0+spgXAaviGkJBuwtDsAPemJOswNDkAX0sC1OhRoo4NTdLZ+F6CZwsDSEQuEb9zG7o03WuRmBnUyWJV0rsjhqe0ROC9W8uV5F0MjEvbUFLY+qA3FRMEYJeOKKmPbDyZ5U3jCQz9hyD/bOgfKRKElfW8WqU3H+ehQ2CzTXN8IrQCLHc8fa/j8u+Xs3qyi8g+hDzXFg/kUOS5z+A0ZD9Is0ywU1ETq5DFjZF79cpWPqVrHbwAt1PpR4Hm8jG8lddL8eT3X6r14ANvW5TyWNn+l3ppe0BAe4UPq80zb94LVL0G6g9TV2bivOJo4n53WVCM5EX0BhmSw+sVO++9rufStNHL3LCJPAQx1cPWNBq62B2/oz41OvDkRcWGzKGuAoQ7VlHEBwykpbH0klei6Ws6eGsJqVeBTxZL13WwSQpDLaNQjq3MofTGH0gm/uFE1zlc+0z9XMMReG6RvQxRx4VbS08Pp71WTUDBCtzuCNHsnJy1KFp4K1WJ4dhnrpUaq3+6juUMGFCgfXM3u29Ly0aOJ9uKUQ9ML0+kpgXAa7ngyX1wzutnPDRlb2b3WP2tAyjZ2bwxlI+swgwMKPLG3Ngup6XHQD+gPj8dlTjCDR48+jM5LxNh2irc/9I4tLXfm6Ijy+RgMujQnlkEF4dZzvPvu5AAYeR6PRJVl6abd2vN4MRvUDZx/c7pNasGkmfy8Nuvs2qh7exHfTjNT/6qFQV/YrNMsHPxOrlo9d29lzzQxVAqPhHsKZRUba1jA9WMkexEMHqqi4tz4OFQbdF+LNMHpBScjQxI+tX8zsecW9Mt4291crvjaPrrWZZGx6AJVBQkk2eo53hk2auwFr180PWaaf2GmGXClRVOybylFOztpG9tDMDNzoxNvzlCfG9DMWVnmggQS7XWcfN02un/Biz1NHZLDAGCx2FHZmsb2rQUieb76fIIyV9vsmOQM4pIHyEhs59qHOtYXRhDlNKLuuTppU61nARyb5EyIocxow/S7Fq6OrUSpiY6UYYTbEDvOASUaZ2h6QXD7ItaHbhHTS2d56612LL4Wal86w4H3e3CP7m04+HIDNT3BDhaZ5uo+3MbsyXsBQmolG229KqLiVZOOLg08+lA1xRJmcvb0Owd9iqlnDzvaB3DH6YmyeoI6KnVuGKHPpkClmHqWu39FJjsyLDT+ofWGjXehpZnCZMIQKSM5PQT+iSLgsI/eRZGjm+ID1GpaCrtKJQY/mt6BDCbNnA78GWQO5mXR3epDsTiOBMkXXH9V3LwQb78dUKJQ3GioDtHlkogP2AuAwkBaohfaHfN7f4li9ispihv/VmEkLXl6y0WlmM9Vm2D0gkxzi5WRlGSydPI0bRqcfhlz7Prt9ElKpouY0HYMUGExkrBES2aWHnf94Njm3dnqF3XbAF/UOkZDb0KYQQtRJ96cGOKzx9vakm0gEzODHZo5LUs1xbRff14MUSF2JZ/Jht1gJNI9uZ6dU95OOnmczi6fW+vTHf0G9OtiKe7rxVxrpjY1gZUxaiydjqD1y1yO+Rnf8lOsmrriosg2zN/GTTksLKBMPQmJ3lnl4zbGEBcQrhSVHo3SYcMyoghZLwiE0zBvSEm5FBYVsizTiBYITy6jsKiQ/ISFcbmWbPHSmWAksb2HZquMNTmSyLYuTNbQzyfPON3EZ11G0h7KY1mJCrVRg2ZlCqueMRAdtB7z0Hask+GicjbtDCcmUYEqSY9uawYbntKP5dNxrZeRtGLWbFGgM+rQ7lrCjrRhnEx+wTu77XgMORSvl1AblWgM48o/42grF5RLWP3nUaQv9susW5ZA5nNZFCTN19TOMJYuGUVhLtnpoDYqCVP7H8wdlcjmHXGEVdVx1R6O2qgc/UhjM9XBpLn+Ygwb/U2VpMewK4sNMS76rthGZy9tdHUqiFq/hOx0oCCZB1YamLiV3UD2Y5mktVdT0RRYlhKlIpQ0c/einVnmIHvaiRba9AWs/vMo0tIZraMlLC8YnuTk9ViUxK9JIyFRMaG9AklqHaJTyiBrtwLdhH5moer8MO4lpWwY7a9hDy+mXNtH/cn56mPByXyTOVcaWv31vGSxCinDSPozOSx1O6dwwIexmpnQn1Xhc224BKcX0r5spdqdTuFzqWQtVqE26gjbmsnaTZ6Q8hlzCrrstLqiyLjLQPSUY2yYpno76uJlbIgZpLNyYgbB6JfhlBRW/h8J5JZo/P1mWQr3FmlDdihD0YnBYFi7lKVLlUgZ0ZTfn0JMdxONoxMCc1WWrraPfn0+RQ8qiTZqUK1fzFPLFNjl0IzfpOo2DvelUvhcKnlLw1AblWgL4kjcX8zqookGeHy3nT4pfWycBrZpKPnMRZ82d7owLkrE1WjFK1u4allMbvIwlg5C0C9zNeZnRtth4dpQBIt2ppCWDsqceAr3JxFt9zGzNxM6qkYLDl0+xfdLfr35aCYrlbN8JjmFnP1GEhIVqFbmsKsIhi/3j67ohKYXBLcvCz48SZWzhg2F40v6mvzNbMgHZ0ULdT0L4bo3BZlZUQw22PAQSeqiCAZqhgltP8OYec7Iq+f47IEcyneUcq9KgeQZwn65O6TL3ZKqG3jPk0jZtiJWrRg/t7z3on0sn4zT1/hjfD571q5i21o3rvZ6Lv5vUP9VIYszXBCw0Tfjoon38/LZvnk192694Z4G2ULz/6xgeM8iVjxiYJkCJM8QlqYmagbmz7FTfFjFxWeWsOypVAoYP0/bo1MSoQBF8RrunXC83vjRt8Gk8WMkdd86Uv3zVDBkpuOTs1ScCx97afV/co3GfdkUPJVE4YCJy281Y386BnXAENOGy3jSVrDp+cCyAkPXgkkzdy/amWUO9gXYwalXRsjfm0vRUyqW48XX30XlhbBJRnH/B03Uf2sJq57zfzP5/HNQ93Vy7Fgku9atZtuyif0s6vNK3lRlc/fqcratV8BQL21vX53HVZngZL7JGxbeqOD8E0spfiyVXM8Q5osXeOdUNnv2GokLtzIQsBHQ91EVlY/nUTDan0O/p2Fu9IJiZIC6X1zB9kAuZY8sonD0HHnTQV9I+QTMqlD7YRcZu0tY/7yCqc7J19X2YS5PI9Z+jcstE++oCUa/aMx2Gt2pLNuRSb7Kf+eBveEcn70T2sx2KDpxZsw0X/AS9UAZu5Q+5NZqjv3JiWN0nm6uyjI0t/Hx5zp2bipjfYEPX38rVb9roe3BNexMUcOF4N89nn8/z8EHcij/Vjp5o/Vo7TTR3Ka5Ydx38eVJA3et8o/TiW0afD5zwWC7BYp9dF0NA2RaWx2Q0ou5aXJZN9MvczPmg8FO+++vUvNEFsufyqHE1U/f5+d5JbKEF1YYSPBZ5/SugtirrRysNrCjeDXbiv33Jnw6vJKHZvFI2uYr/Mq2mIeeHb2jouoMRwL2AoakFwS3LVJGRobwAQUCgUAgmAP8F5dJ8+DwCwQCwdeL2NMgEAgEAoFAIBAIhNMgEAgEAoFAIBAIZo8ITxIIBAKBQCAQCAQ3Raw0CAQCgUAgEAgEAuE0CAQCgUAgEAgEAuE0CAQCgUAgEAgEAuE0CAQCgUAgEAgEgq8DpdFo/OFCFc4dtZj1d9/L3Zs2sHplOeWlK8iLt9PV2IeDhXdbSFfBYh56RsnwCTv1hTns+zMv1pNO7EGK2r19OY89mkneprQJn2xtA9cabriHT6FF/1Qxd+3OZMl0aYLAlRZH8W4lngoXIzfIOZySwsa/Tibqahc9Q8o7ptObVuSy/9txqOsX2nNp0b2wmj2LTVRXfnX9e/p2njt5/CzqOPMAACAASURBVH3bi+sLO4OSNA/5BCOrP81996SStymNZWmt81rPnv0beWhzL92nPZPG1py34bJsNjyRRfFdi1iyKY28Ug0R7n46Oxf+rUo300ELkcDxci53Cc/sG76hjaPJfHE5GzamBaHL/WnXhM9OfwePv5wiax11ikw2/rUW1ZGhWxqLAoHgm8eCvhG6P6WIFdHDXD15ggqTBTl1A3dv3MKD9w7z609MOBfayy9Bi6GnmR5JwptiwNDTGNLtjvFHKjl40ocjOZUt+1JQHDrCqSo9snPyXb2mTYt5PqGPmt+00mJVTpkmGAaK0siPqaNTjIWFYI7g+NUp3pXvPHn8fduLrJC+xnz8z3NQAfKedey9g3qOV+fDW93AuWorVqsWtmWzbUcp65yn+bJKs6Blv1N1kO/yl3x6bOLlbpP19ACml87SNkv9LRAIBMJpuG4gNH/Kb6sdDF3/ovYj3jA+znPLV1Gua+KEY2HNfickGhnptuMhnMREA7beESD4F7ZixINrBNx6Dx5A5fDisnhhilWVhEQjyuEG+kzgkqZOI7gNsXlxLqS2nCN5rvftrz0fmxcX4PHcWd0m4mQT58b+54C3GjiaVsquEjVUiWH1tThyLjcuy40RwJPHkmzxIgv9LRAIhNNwaygdAQ7DKO02B6BDo5XBsbBCS2ISYLDeA2iJj3NjveSd8zJ0L5SyLdILeHGzjPUv+n/xnP2Cjw8G76B49m9kT6YbYEI+YZbLHHlpmIGAd5gUl8CSx/LJ0QNDHVx9o4Gr7eMzaF59BEn7cilL0aBSeJFb6zj7p0F67cFvmRlOSWHrsx66fi4Tvj9ntKxWal4z0dCnDEgTwdAvqqjs8pdvWpHL93YOUvmPPTQrdOheKGVZfyvhi1LQOxq5cMZA/pZ4IkeaufTzDloc4zIplmaz9plkYpU+pIEmLrzWQ3vgS16hJuzhXLZkG9AovEgDJq4c6KC5d7zfXS//yk+c+J7OoyBGhUp2Yj18kqOnwoN+/u7ty/l2mT+9tvEkB/4w2YiYWM8gu/qxnazn2PHQepEzIYalD+dQEKWAoQ4qj3lClqe9aDHPPCDT+tI1aq0B9bGliOdXdnHxX3tp9UmjbZZBnA+gYbSdpElqyHVfNncvjyJSpQDZibWzhupXR+iTAvvHTPkAihj0T2eyMU2DSh5i8OQVTh2RCNVHcJVls+GueBLCJCTPAN2f1nDmwmy2gOkJ35vL9qU6VLhxVV/i2HtehmWQw+NZ+v0sEj87wtEzuhvGQjK+t45zuko7S13hxuWS5k3X6V4oZVPdId50lrB9jZFIlQ+GrnLmp5ax1dWRvGTKd6aRqVeCPMTA+SrOHvThCkEHzTzmpbH++p2cOj55y0D2w4vI1CuRPEO0vXmei/WaoPTLV03g80+tvwP1fSBmmn95vT6CSSMQCATfAKdhKvIS40Fup69PuSAm1ycaM17YcTe7d4z+uGcbu/fcxMAJvbQJ4RW7jRWc/LWNAaSQw5PC3v6Sgyqwby7h4czGsXwkWcY5QVQj2feMUPfuOT5wx7D0kcWUbOug8bf+1RAURjK/W0iZq4nLr/fS7NaTdn8hG56+zJGfOSY4HzOziKInurn23nhZK3Z003K9rCCJV3dz5HcuFj+Zzeqyaxz7XR/6hwrJX9NEy6HrRlgMmaVd1L9znlP2SHL25rPqSXuAw6RB9Rel7IjopOWDOqp6NBjuK2TjUxKelztpm1BJkaQ+ZkCuv8Tpsz4cmYks1YcWEuIPuwnH+EwJW6ZMoYB9Jaw3+uu5vU+NrzSO9TEqCKV2FEZynlpCobmC0284sCRlULwrjTjf4AQHfSZ5Uiv7qN5ZwNLlVdQe1Y3JmJkVhbKxglaf38DWdnVx5qVunJtL2Fs8tUim1Tl8r1Si74sLHKry4UuNI2GjHq1vGEZjroPJB2A4M4dNVy9y6mUlg2uyuXt9OWsGT3D8UvAOnGlLEd9br8J68QInTigwl2Zy7yxDfdzGHModlZx+xYE5I5u196xk87DfQFSM9FPdnktxfiSqM+N93FqSQJKtluOV2tnpOIUC19oc7okbov24i1BWO0MyejOL2KswU/1GA512DZrNWmJ8PpAkugoW8+TeGFRXq/jy6Aj2pAyKd61ki+cEBw+FhaiDgsOnSKFwnxLv8UscqlfgKkpjqUaec/2i7ejg1D8BhJHRVc9bF5lVO/mfP47MF7LInkHfXx9fzm0l3L9kBM/Y5EcwaQAGaP6nUzSjR8uo/AqxuiEQCO5gp8EdvYa7c5S4r56lQloYBz9dN2YG8rJ4fIuNyp/3cqY4j++UdY6+BH23HMc9gYDwCkl24RqU8U8ohlaGz+7Px+zy3ZDPZPoP11DboAd6+PhcAtlrY0iWu2lVSJg2pbNb0039K200mZWAhYY/NpPwnRyyss4x0ByaM2M9WUttg27KsoJlsNaMtVVBnU1J6rU2+lrD6epVUmqcaDgOnqiipkYPDHDuvQ5Sn8gdk7mrII0n41x0v13D5Sot4GHgt3Wc/7sCFq9ooO2UPtDEJrLtCz7+bNQ4u9zBpRDbwx9248UuT/d3GgyREiO1zTQ1aPyOwmETR0LsPqZlCezWdNP4toUesxK6mzmYHsdTy0KVx0JzE6zNMqA66sUDyOGx5KW66L04DIzWjywjW/z9bDo00eGE2eqoO+HBIQGWblqqbzBqgsgHQOmo48zrHgYkD3xSx+cp63hwmR7VJW+QhqGRtasMhNWe4OiHfh0jHa7jw7i1PF6uQ1XlDXHVopXa16z0OBXQfY0PkmN4sjCehE+s9EgyXee7sTyQSJamlXqnAtBTuESH++ogfVKos8TRZL6YT5EPwEbvOxc5PY/7GXRGKxX/o5tWpwLw4PmjHbtCAlSkbUzG0H+Wjw84cQB0N/NmbCQvLIsl4XMrPVJoOigoJ8YQheaDAAfxRANX0M65fgn65bpyM7tXBn4zcQLJ//yusZWXm+l7AEt2KrsKZQbfb6DWGhZaGoFAIJgDbp8jVxXJrN2+giTrZT452rtw5JJlZIuXIWME+o4eTFYZr1GHutNCt0XGZfFxe4dPWxjsCjD8LU5Q+Li+oJ+SGo26xzTqMPhR9w3SaIsgJsMTcllmU9i0ZQXdJCP+GTirWYEnwOhVTfAZzJgDHBpjo41mdEQk+cMFpAwDWlcLrZUBfyRbaOtUEZusu6FEM20V8z2UnNisPtTF+ZSUq9HrfbPKRZOoR2XrpqN/vFYdLZZZ5dVT04MlLYms0dnctmWx5HmbabukC+3JBkZwG/Mp3hVOTKLvlmYy1F2WgMMHZDo7h3DH6IkJsrqGU/Skq110VE08ZqGz0YwrIZoEX2j1HmYx0zcy3jcGWwfw6gwYw/11llrdR7U7g0Wr/Rs1bJnRLInoo+XCbJ7ev6n24MsVHKyWiL5/GeuWu+etR2raumh2TtXvDaTFe7BWD/gdhlFir5rp18cSY/TOk0Qm2i5o5l2/BD0xc/lLDr58NuDTR9ssnROvPpryB1OJq7vEqUths04jEAgEtzQZcnuIqSd9507Kw5s59ocvafctPF8nJdmApd3hlzVRh7nBv/fizkaDMUrGFVXGth9MMt3xhN9+x7TqIv1DwmjUI6tzKH0xh9IJKdyoGicba0Mdqnl2wWV4o4Iv9yyi5K7lZNynQPIM0PF+Neergq9no1GPJE802mL77fRJESFLlFrdR/XOJSxeVk/9GR0pObFom2toDnGVJeP0Nd7TZbGmtIh1K1Qgu3FVn+fIO9x8FjZYg0unQTcaNjMT/bF64nxh8NBWdk9qATNqH3MQFqlHE+2FLgXIFmpqvawuiEZ31Im1JIWEvstcmGUsumzx4sIBb1Xy3sNreWRDJNEXh0MMEwwOW//UoU/OBB2xQPjGbezeeKMlbWZQJ4N17nVDmGUIywI6QnTqjdCze00rHsynyHGZw2/IeKbsgMGkEQgEgm+A06Db8CA7kx1cfftdrowsrBmUzBfXjIYDuCFjK7vXAnggZRu7N97pm9GcWAYVhFvP8e67k1cV5NvwGEGH1QNosFjsqGxNY3HWgUjztnQkI93keFOlfYi+16o4BPhiIkl6eCmrdybSWdlLR5DGksVix5eonMJQZtKhAzPJg2yhpV3F2vxIlOcMZC9y0/3Z8JTO8s1PK/IgHa7n9GGQ1Wqku3K5t7SMFXXHOV2rDSGfaerN4cQRZP34HSgVzgNVVE0at/IchRracQ6Mt4FU0UFPSTpZMW2E56iwnhvAMQcTDmbbMO68CIw+BwNfoTGt6XHQD+gP+4+MnmRM28Qs+IReJd+8bbq3F/HtNDP1r1oY9IXNOo1AIBDcKgs+PEkueIBHClX0Hn2dQ70LTxmaXjrLW2+1Y/G1UPvSGQ6834Pb1UTFS2c4+HIDNT0LX4H7FLOf9etoH8AdpyfK6sFl8U74eOblpqZw1OHjISJR6dGzzCeGmMzxeWxLtoFMHAyNGoo+kw27wUike/JzOe3zZYD5nTAUMw9LyWzl7Bkzslryz34HW0K3HY8hkZTY8dUG3SLjrOXpqO5hJC2GxMJoFvs6aLs89YZjb78dUM74aAqXC+mjDuqlMMLC5ZDzcSUZSfCNq7fk5AjCzHbMUzXZFJloO+y0uqKIinVOavfZhBq6jTHEBTxHVHo0SocNS0DIkqG5nwuWROL3pVOmbaHldPic9KYYg3Z6h8kgzeOMkY22XhVR8aop6tCLVw5VB83VmF+IjNBnU6BSTD2I7Wkp7CqVGPxo+smnYNIIBALBHe80OFI38+T6eEbOf8CRDh0Gg2Hsow/zLQgZZYuXzgQjie09NFtlrMmRRLZ1YbLK074gp80rXIXaqCQsUoUKUOiUqI1KVOHz96x+IzKH4vUSaqMSjSHE0JKjrVxQLmH1n0eRvliF2qhBtyyBzOeyKEia2yl5bYeNppEIFu1MICFRgWplDvfkzvbmMS/RawtZulSJlBFN+f0pRJuv0dTkXx1Jqm7jcF8qhc+lkrc0DLVRibYgjsT9xawucsxbe3R0WhjOyGX50hvbPpqsF9LJWa8h2qhEmRPPXZtiUfcM0hPC7HfG5R4uOxPJ3mMkIVGBZlkm95YoZiHP9fz6qJYyKbk3BmNbFybn1HkltQ7RKWWQtVuB7sZ+9uhyVt9rJC5dQpWkR//oIoq83fSawkPLB/CG51P2iIpoowbpvnzuShmi45xjkrHf19w/zXNZOHnGhn5zKau2hBFtVCJlGIi7L4d7987CuZZTyNlvHOuvu4pg+HL/DZc+DlNbZSMiPhajqZsmZ6hqWUvMt/Mp2RpOTKICVZIe3d4i7s/zTFEWmHeXs/s/reb+B+ZrycxD27FOhovK2bQzQKatGWx4Sk+0L3gdNLdjfiEyjKVLRlGYS3Y6fv0/NgtgIPuxTNLaq6loCkdtVI59lGNdJJg0AoFAMDcs6PAkqzGKCIUSyvbycNnE33qP/Jg36/QLwu/KzIpisMGGh0hSF0UwUDN1iMZM9G4pGjsbHx+wdQv3bg39DoaQjP6LJt7Py2f75tXcu3Xqexpm8Jpo/p8VDO9ZxIpHDCxTgOQZwtLURM3AXMct27j2cSfZu/NY9ZwPubWOLw46WfnAbGb+m7n8vpqYh8rYpfQhDVzj7K+GGBg7lcuJ59/Pc/CBHMq/lU7e2P0BJprb5u9Emowj9RxOX8LGB1eSRmDbj9DWk8TKdcks2aLwx/23V3PsT04cofj+soVrv7mK/okiVj2H/56Gj9tQ7YwIUZ7x/OrbVRSkyfTUW/Aw9ZhU93Vy7Fgku9atZtuyif3M22zFtzqH8pVhqPDCUDeNbzRTZ1aGlA+A5+IljsSWsOV5NSp5CMux81Mek5p08hqfpBVw1xTPlXGkkjdtmazfsJz165WAF19/L22n3CHPs2ibr/Ar22Ieetbgv6eh6gxHDk2eDY6v7aNvXSrqOiuekHWHG3O/kqWlRaxb51fpsquf3k8quXhucllhdhceVISlG4j2zc9+h6TqBt7zJFK2rYhVK1Sj7Wqm96IdmxSKDprLMb9AZ+4+rOLiM0tY9lQqBcDgB59z/JIeUKENl/GkrWDT8xPcvoCw12DSCAQCwdwgZWRk+EQ1CAQCwdeHaVsJ31vdReW/dIe8kXw2dBUs5rkNJg79bzcOUf0CgUAgCAKxgCkQCARfE5JeiZSRwPZSPWG1X43DACpSVicyUjskHAaBQCAQhPD2EAgEAsHXgnvPOvZkjqDoreDw219FiXpiXihkXdcZPj+uEQ0gEAgEgqAR4UkCgUDwjUFBeCKMdMuiKgQCgUAQEmKlQSAQCL4xyIx0i1oQCAQCQeiIPQ0CgUAgEAgEAoFAOA0CgUAgEAgEAoFAOA0CgUAgEAgEAoFgnljgexrSKXp4K+VGLRolIHtxtF/gxOFzNA4vPH+nq2AxT++ycOW/93KhMIdn7uvlwo+tk25knY7u7cvHL3cLYMrL3RRa9E8uYWOaBhWzvwDOlRbH8k1OOl+zTbrkaTglha3PRjD0izvrkiDTily+t1NagJcfadG9UMquvuMc+MNXd3nV9O08d/L4+3Y7lf/YQ7NCmod8gpHVn2ZbpNf/v8aT81rPnv0beTj6XGiXJd5SvdyoOxpuub6/Cm6mgxYigePlw+QC/np924Q2ntQWshtnbxPVB/pot3xd761oMl/MJ+39z/m0J5etz3ro+n+7F3zfEAgEwmkIyYjSe5qpPdpEQ+cg3qgCVt61iu3fkvjTf5yjW1pYCs+VoMXQ00yPJOFNMWDoaQzaYQCIP1LJwZM+HMmpbNmXguLQEU5V6ZGd6smG76bFPJ/QR81vWmmxKqdMEwwDRWnkx9TRKcbCQjBHcPzqFO/Kd548/r7tRb5FI+XW8vE/z0EFyHvWsfdOU+a2Gk7+2sbA2F0P8i3X91fBnamDWql9qROTJOE2RpB2fwFlzymRf9xDp08Y6gKB4PZkgYcnXeX0W0c5dbWVXpsNc+tpfn2mE29UHoVxngUnbUKikZFuOx4gMdGArXcktMYY8eCyeHFbPXgA2eHFZfHiGZGmLEs53EefiWnTCG5DbF6cdumOk8fft314vu58bP4xNeK587qOJLtwDcq4LN7Rz63Xt2C2uPAM+tvBZ7Jw9nAPw+EZZOSPiKoRCAS3LbfdkavhThcedAtQMi0xCTBY7wG0xMe5sV7yznkZ4+EVXtwsY/2L/l9CDU/y7N/Inkw3wIR8wiyXJ4VTSHEJLHksnxw9MNTB1TcauNo+Hsbi1UeQtC+XshQNKoUXubWOs38apNcevE/qX/L30PVzmfD9OaNltVLzmomGPmVAmolhNP5Qo8HRMAwduhdKWdbfSviiFPSORi6cMZC/JZ7IkWYu/byDFse4TIql2ax9JplYpQ9poIkLr/VMDB9QqAl7OJct2QY0Ci/SgIkrBzpo7lWOJble/pWfOPE9nUdBjAqV7MR6+CRHT4UH/fyBIQ3Thc1MrGeQXf3YTtZz7HhovciZEMPSh3MoiFLAUAeVxzwhy9NetJhnHpBpfekatdaA+thSxPMru7j4r720+qTRNssgzgfTh8uocN2Xzd3Lo4hUKUB2Yu2sofrVEfqkwP4xUz6AIgb905n+sD15iMGTVzh1RArZeHaVZbPhrngSwiQkzwDdn9Zw5sJs5lj0hO/NZftSHSrcuKovcew9L8MyyOHxLP1+FomfHeHoGd0NYyEZ31vHOV2lXZC6TvdCKZvqDvGms4Tta4xEqnwwdJUzP7WMra6O5CVTvjONTL0S5CEGzldx9qAPVwg6aOYxL4311+/k1PHJWwayH15Epl6J5Bmi7c3zXKzXBKVf5rXGRty4pRv13UzPNTGcbhxzQGhlMGkEAoHgm+g0GBezfVUmmsEzVPWpYAFMyE40Zryw42527xj9cc82du+Zy7jiieEVu40VY+EIoYYnhb39JQdVYN9cwsOZjWP5SLKMc4KoRrLvGaHu3XN84I5h6SOLKdnWQeNv/ashKIxkfreQMlcTl1/vpdmtJ+3+QjY8fZkjP3OEGKO8iKInurn23nhZK3Z003K9rCCJV3dz5HcuFj+Zzeqyaxz7XR/6hwrJX9NEy6HrRlgMmaVd1L9znlP2SHL25rPqSXuAw6RB9Rel7IjopOWDOqp6NBjuK2TjUxKelztpm1BJkaQ+ZkCuv8Tpsz4cmYks1Ye2v8QfdhOO8ZkStkyZQgH7Slhv9Ndze58aX2kc62NUEErtKIzkPLWEQnMFp99wYEnKoHhXGnG+QYZCkCe1so/qnQUsXV5F7VHdmIyZWVEoGyto9fkNbG1XF2de6sa5uYS9xVOLZFqdw/dKJfq+uMChKh++1DgSNurR+oZhNAQxmHwAhjNz2HT1IqdeVjK4Jpu715ezZvAExy8F78CZthTxvfUqrBcvcOKEAnNpJvfuKGWd8zRfVoXWrm5jDuWOSk6/4sCckc3ae1ayedjv4CtG+qluz6U4PxLVmfE+bi1JIMlWy/FKbUg6zm0oYvV/VaJSeGGom8YPm6mun7/FZE9mEXsVZqrfaKDTrkGzWUuMzweSRFfBYp7cG4PqahVfHh3BnpRB8a6VbPGc4OChsBB1UHD4FCkU7lPiPX6JQ/UKXEVpLNXIc65ftB0dnPongDAyuup56yI3bSc5PJzYjUlEDjdRVxc+K31/fXw5t5Vw/5IRPGOTH8GkARig+Z9O0YweLaPyi/0MAoHgTnQawjY8ybOFo4ZJ/1nefnvh7Ge4bswM5GXx+BYblT/v5UxxHt8p6xx9CfrmNq7Y5sUFeDwB4QgShOpB+ez+fMwu3w35TKb/cA21DXqgh4/PJZC9NoZkuZtWhYRpUzq7Nd3Uv9JGk1kJWGj4YzMJ38khK+scA82hOTPWk7XUNuimLCtYBmvNWFsV1NmUpF5ro681nK5eJaXGiS/swRNV1NTogQHOvddB6hO5YzJ3FaTxZJyL7rdruFylBTwM/LaO839XwOIVDbSd0gea2ES2fcHHn40alJc7uBRieyhGPLhGvNjl6f5OgyFSYqS2maYGjd9ROGziSIjdx7Qsgd2abhrfttBjVkJ3MwfT43hqWajyWGhugrVZBlRHvf5wuvBY8lJd9F4cBkbrR5aRLf5+Nh2a6HDCbHXUnfDgkABLNy3VNxg1QeQDoHTUceZ1DwOSBz6p4/OUdTy4TI/qkjdIw9DI2lUGwmpPcPRDv9ElHa7jw7i1PF6uQ1XlDXHVopXa16z0OBXQfY0PkmN4sjCehE+s9EgyXee7sTyQSJamlXqnAtBTuESH++ogfVLws8R6Sx+mT3u4Vu/FGR9J6j1LKNkXjuLV+Ztt1hmtVPyPblqdCsCD54927AoJUJG2MRlD/1k+PuDEAdDdzJuxkbywLJaEz/2HQ4Sig4JyYgxRaD4IcBBPNHAF7Zzrl+BYTNF/W0zR9RftUAsXftVFp085K30PYMlOZVehzOD7DdRaw0JLIxAIBHPAbXHkqvPMn/j973/PgQ8v0RxRzp4HV5Iq+RaGcLKMbPEyZIxA39GDySrjNepQd1rotsh3QFyxhcGuAMPf4gSFj+uvvpTUaNQ9plGHwY+6b5BGWwQxGZ6QyzKbwqYtK+gmGfHPwFnNCjwBRq9qgs9gxhzg0BgbbTSjIyLJHy4hZRjQulporQw8BcVCW6eK2OQbw+PMtFXM91ByYrP6UBfnU1KuRq+fXf/XJOpR2brp6B+vVUeLZVZ59dT0YElLImt0NrdtWSx53mbaLoUWPugcGMFtzKd4Vzgxib5bmslQd1kCDh+Q6ewcwh2jJybI6hpO0ZOudtFR5ZzwfWejGVdCNAm+0Oo9zGKmb2S8bwy2DuDVGTCG++sstbqPancGi1b7Y91tmdEsieij5UJozx1xso2Kcy4cFi/eawOYfl7NRW8suWvnb15I09ZFs3Oqfm8gLd6DtXrA7zCMEnvVTL8+lhijd54kMtF2QTPv+iVoZ/GlMxx8+Swf/LaG87Y0lj+TyiLd7E4V8OqjKX8wlbi6S5y6FDbrNAKBQHAr3BYrDQqXA5sLsJ3m/XckHn20jNV5X/BmnX7ByJiSbMDS7gD0pCfqMDc4YEHuvZhTswFjlIwrqoxtP5hkuuMJV952T6SL9A8Jo1GPrM6h9MUcSiekcKNqvPGvBhjqUM2zCy7DGxV8uWcRJXctJ+M+BZJngI73qzlfFXw9G416JHmi0Rbbb6dPighZotTqPqp3LmHxsnrqz+hIyYlF21xDc4irLBmnr/GeLos1pUWsW6EC2Y2r+jxH3mFsBvVW8Oo06EbDZmaiP1ZPnC8MHtrK7kktYEbtYw7CIvVoor3QpQDZQk2tl9UF0eiOOrGWpJDQd5kLt7o6IFtoaVexKlVHtG9+jny19buAyUa6M0FHLBC+cRu7N97wo8/MoE4G69zrhjDLEJYFc6Le6EZohQQWC62/uor8dwUUb2ihJeSjsVUoHsynyHGZw2/IeKbsgMGkEQgEgm+A0zDhxTBgwwakxiTChCjsr4fMF9dQ5PMbk2RsZfdaAA+kbGP3xjt9M5oTy6CCcOs53n138qrCbI+B/TpxWD2ABovFjsrWdMMRln6keVs6kpFuMhGptA/R91oVhwBfTCRJDy9l9c5EOit76QjSWLJY7PgSlVMYylONppvLc90wXZsfifKcgexFbro/G57SWfbctM48SIfrOX0YZLUa6a5c7i0tY0XdcU7XakPIZ5p6czhxBFk/fgdKhfNAFVWTxu1cHWFqxzkw3gZSRQc9JelkxbQRnqPCem4Ax2084aDpcdAP6A/7j4ye5MTZvoGz4LKLgWEFhtjQdWL39iK+nWam/lULg76wWacRCASCW+W2uxHaHW3AADiGBheEPKaXzvLWW+1YfC3UvnSGA+/34HY1UfHSGQ6+3EBNz8JX4D7F7Gf9OtoHcMfpibJ6Ao569M7jMbDhqMPHQ0Si0qNnmU8MMZnj89iWbAOZOBgaNRR9qwWYjgAAIABJREFUJht2g5FI9+Tnmr8jUf1OGIqZh6VktnL2jBlZLflnv4MtoduOx5BISuz4aoNukXHW8nRU9zCSFkNiYTSLfR20XZ56o6e33w4oZ3w0hcuF9FEH9VIYYeFyyPm4kowk+MbVW3JyBGFmO+apmmyKTLQddlpdUUTFOie1+2xCDd3GGOICniMqPRqlw4YlIGTJ0NzPBUsi8fvSKdO20HI6/Na7ksLIolQPtE9zGIFBmscZIxttvSqi4lVT1KEXrxyqDpqrMf91vmnVRGtlPCOhPZc9LYVdpRKDH00/+RRMGoFAILjjnYaugt08uXMdK7PiMRgMxGWvY/cDy0lwNnGlZmGILlu8dCYYSWzvodkqY02OJLKtC5NVnvYFOW1e4SrURiVhkSpUgEKnRG1Uogqfv/0bfiMyh+L1EmqjEo0hxNCSo61cUC5h9Z9Hkb5YhdqoQbcsgcznsihImtspeW2Hjf+fvfcOj/K6Ev8/7zujKRqNRr13hAqIJoneBNiADQTc7eDYjuNk42wcr7PZ7GbjbDZxst6WTfJz8vU61bHjrHvF3QaM6F2gXlDvdTQaSVPf3x8jVJAEM0IYQe7nefQ8xrq6763nnnPuufdWDwaQeHMEEZEy6sWp3Dh7qi+PuQhePpfMTBVSQjC522II7qqkutrjCYwqbmBPRyxzH4olLdMPjUmFfk4YkTvnsTSr/4r1R1OzmYGE2SzMvLDvg0l+JJ7UlVqCTSpUqeFsWBOKpq2HNh+83wkFbRTYIknZYSIiUka7IImN8+UplOd8fh0US0nM3xiCqaGFOtvEeUXV99EsJZC8Vcb/wnF210KWbjQRFi+hjjJguCuRLFcr7XU63/IBXLp0cu5UE2zSIm1KZ0NMH03H+8cp+x01nZPUy8yhoxYMa7NZkudHsEmFlGAkbFMqG2+ZgnHtjiF1p2l4vG7JgoGCzgsefRygtMhCQHgoprpWqm2+yjbP2EjL1eBvUqFKDSb+gTQWqTqpODR+DnZtzWXrt5aybfuV2jJz0pDfzEBWLmtu1hESKaOOMuC/LoFV9xkIVryXQdM75z9PNKiDPGNLSjAScXsyi/x6qT3l8KFeRlLuTiKusZgz1To0JtXwj0r2JY1AIBBMDzM6PCnQ3ILZOJ8FN8wjWwbcLmytBXy6+wAVzpkiET3XTPZUWXASSGxiAN0lE4doXIr2vKzhu/FRgHV5bFzn+xsMPin9p+rYlZbO5rVL2bhu4ncaLmE1UfP0GQZ2JLLoTiMLZJCcfZirqynpnu64ZQuVHzSTsjWNJQ8puOvL+OwjG4u3T8XzX0PBLg0ht+WwRaUgdVdy7Nk+uqXz48qG87cn+Gh7KrlfiCdt+P2AOmoatFdsNCXsrWBPfAarb11MHKP7fpCGtigWr4gmI0/2xP03FpP/mo1+X2x/t5nK58oxfDGLJQ/heafhgwbUNwf4WJ6R/Coa1cyJc9NWYcbJxOeMNB3N5OcHsmXFUtYvGDvOXDW9KEtTyV3sh5qh60JfraGsS+VTPgDOU6fZGzqfvG9qULv7MOefmPCa1KhDlXwYN4cNE9QrYW8hr1uSWLlqIStXqgAXSmc7DYcdPvtZ9DVnedYyi9seNHreaSg6yt7d473B4aUddKyIRVPWO4V3aOy0DwazZEM0aZvkofLWc/YPDdS2jv+Wn9WOEzV+8cYrdt4hqriKd5yR5KzPYski9VC/dtF+yopF8kUGTeec/zyJJ+OReDKGHBRKZwsVr9ZSNnz5gjf1UqPXuXHGLWLNN8eYfaPCXr1JIxAIBNODlJCQoIhmEAgEgqtH3fr5fGNpC4VPtvp8kHwqtMyZxUOr6tj9Gwf9ovkFAoFA4AViA1MgEAiuEpJBhZQQweZsA36ln4/BAGpilkYyWNonDAaBQCAQ+LB6CAQCgeCq4Nixgh1Jg8jtZ9jz5ufxRQMhj8xlRctRPt2vFR0gEAgEAq8R4UkCgUDwV4OMLhIGW92iKQQCgUDgE2KnQSAQCP5qcDPYKlpBIBAIBL4jzjQIBAKBQCAQCAQCYTQIBAKBQCAQCAQCYTQIBAKBQCAQCASCK8Q1dKZBS9RN97I9QU373v/h9TLDjCthy5xZ3L/FzNn/bOfk3FQe2NTOyf/pveD118lp3bxw5HG3UUz4uJusx/ClDFbHaVEz9Qfg7HFhLFxjo/kFy7hHngZiYlj3YAB9v7u+HgmqWzSbb9wszcDHj/T4P5LNlo79vPJ/n9/jVZP38/SVxzO2Gyl8oo0aWboC+XhTVk+a9YEuz7/OHbqi7ezcuZo7go/79ljiVPtwQQp564MI9td4hHpfO035FZw8OXP8Qs6dq7nHvc+nNveMzQTCLriuo+fdT9l/2jCj5czFZOvMJJikx9OJ2/UpH7fNZt2DTlp+3Dpqno2dP2Nm1ri59HnIMk95s0aNDbe9k54DlRw9qOC86uPcH/9HssnO/2jGj1WB4LozGqzxK9kQN7OLa4/QY2yroU2ScMUYMbad89pgAAjfW8hHhxT6o2PJuz0GefdeDhcZcNs04xXfNbP4ZkQHJc/VU9urmjCNN3RnxZEeUkazmAszgAH6nz3M2+7rrzyese3CLUtXMR9PfT6Swb1jBbdcRyPH5a/gKq7ieHEvvb16WJ/C+puyWWE7MuGL2NcWZhpfLaJolEGrDPjP+FJfr7JVV3eKt98eq5JLzqsny5SCg3yc73kd25adxMZ1ueSp9/PJPnGlsEDwV2o0hLBkeTqD5eU4M1JnbCkjIk0MtlpxoiMy0oilfRDwXnDJg07sg+AwOHEC6n4XdrMLJnjwKSLShGqgio46sEsTpxFcg1hc2GZSX05Tec6P7auej8WFHXA6r69hE3ComuPD/+qHN6rYF5fNlvkaKLrmTSIcZhd28+hdEyHvrhaScxC7+cL2l66aLHPZHUNjw4W0p4o9acv4QnoA/vvEa+cCwV+l0TAwZzUr1ad4vVjLhoyZWko9IRHQU+EE9ISHOeg97Zr2b4xsD7twsICVj3t+42t4knPnanYkOQDG5ONnLhgXTiGFRZBxdzqpBqCvifJXqyhvHPH6uQwBRN0+m5wYLWrZhbu+jGOv9dBu9T40whOG4KTlGTe6nalD36qn5IU6qjpUo9KMDaPxhBr1DIWreLaDF3TWo0uMwdB/jpNHjaTnhRM4WMPpZ5qo7R8pk5yZwvIHoglVKUjd1Zx8oY3G0YqJrMHvjtnkpRjRyi6k7jrOvtJETbtqOMn575/9uQ3l/jTmhKhRu2307jnEvsM6r+s/OjRtsrCZse3s2Yq3HKogf79vo8gWEULmHanMCZKhr4nCfKfP5WnMmsUD293UP1VJae+o9sjL4puLWzj13+3UK9IF4SVVk4QnqbFvSuGGhUEEqmVw2+htLqH4j4N0SKPHx6XyAeQQDPcnecL23H30HDrL4b2Sz6EK9pwUVm0IJ8JPQnJ20/pxCUenFOpjQHfLbDZn+qPGgb34NPnvuBhwg1sXTua3k4n8ZC/7jvpfMBeiUd7Yz5Ei/RRlhQO73XeFbSAmjJybo4kNN6CVJw73aN28kG8Gn+GPNalsywvBILtQzhWw7yU7FvfYPt2UHYIBB/biE+y7Btaa1s0L+XpqGR++YSTljkSSDCokZx8Nr5/gVIXWK3nnjWy9tCyTvJQvwSQ9HoH/S7X0rF9AdpiE5Gyj4fVKTlXIV60NLy7LJgtz6hoVMupNmolw47aP1WzGh8V58l5Ttnt4zfQmNNin8GGBQBgNVwk5nrW5oTTte5FGafPMM2jGKDMuuOkGtt409Msd69m6o+qy47hHfW1MeMVW0xkO/clCN5LP4Ul+bx7kIzVY187njqRzw/lIbje2MUU1kXLjIGVvH+ddRwiZd85i/vomzj3v2Q1BNpH08Fxy7NUUvNxOjcNA3La5rLq/gL2/7vcxljeRrC+2UvnOyLcW3dRK7flveUm4ppW9f7Yz60spLM2pJP/PHRhum0v6smpqd59XwkJIym6h4q0THLYGknpLOku+ZB1lMGlRfzWbmwKaqX23jKI2LcZNc1l9n4TzV800jGmkQGLvNuKuOM2RYwr9SZFkGnxbRDxhNzpMD8wnb+KJALfPZ6XJ086NHRqU7DBWhqjBl9aRTaTel8HcrjMcebUfc1QC87bEEab00OdDeWILOyi+eQ6ZC4so3ec/XMak5CBU585Qr3gUFn1LC0efasW2dj63zJu4SHVLU/lGtkTHZyfZXaSgxIYRsdqAXhkASfI6H4CBpFTWlJ/i8K9U9CxL4YaVuSzrOcD+094bcHV5WXxjpZreUyc5cECmKzuJjVMM9XGYUsntL+TIH/rpSkhh+Y2LWTvgUTLkwU6KG2czLz0Q9dGRMd47P4IoSyn7C/VTc6jLMvblqdwY1kfjfju+7HZ2hfhhrKvj1Ie99PZqkNKimHfjYlY4LzBsknK406+Yw3+opCs1jRvzFrAo97PhNHV5GXwj20Xnx8fIb9Bh3JTDDTEOqJmK3DMR9+WVJMkykrOPrlNFHPtIwX6FZLoixzD3dhWu/afZXSFjz4ojU+senj+Xknfey1ZvuZR8MZF4axz690/wQZuesNuyWHZzK/W/sA4b3d7RTc1PDlODAT1NHP4JMIV169KybGQdOy83bOvnsy1jEOewU8ebNBPMtzmxLI+207u/j34fxv350OBhx0p8Aqt3hOHX5/YpDYD6hXxeQfLU4akD7EecZxAIo+Fzw29FHov7T/JStR4iZ+D+wpAy052WzD15FgqfaefovDS+ntM8tFgolx3HPYZR4RWS2469x43HoejbNxSrJ58uu3JBPuPp3FNCaZUBaOOD4xGkLA8h2t1KvSxRtyaerdpWKv7QQHWXCjBT9VINEV9PJTn5ON01vhkzvYdKKa3yn/Bb3tJT2kVvvUyZRUVsZQMd9Tpa2lVkm8Yqjj0HiigpMQDdHH+nidgvzh4uc8ucOL4UZqf1zRIKivSAk+7nyzjxnTnMWlRFw+HRC0E4gQ2f8cEnQ4tUQROnfewPT9iNC6t7sr/TYgyUGCytobpK6zEU9tSx18fhU7cggq3aVs69aaatSwWtNXwUH8Z9C3wtj5maaliebES9z4UTcOtCSYu1035qAM4vlG43brNnnE2GNliHn6WMsgNO+iXA3Ept8QUKixf5AKj6yzj6spNuyQkflvFpzApuXWBAfdrlpWllYvkSI36lB9j3nkc5kfaU8V7Ycu7J9Udd5PJx16Ke0hd6abPJ0FrJu9EhfGluOBEf9tImuWk50Yp5eyTJ2noqbDJgYG6GP47yHjokXw/pjz4YaqH9rVMc8dHIiS1s5kjhsFoEx2rZmxDLl2fp4ejolM2UvmSha6hee7KWcWui/1AaPRnzTPiV53PouAxY6Xypjopvz2K+r/aP0073qULKj9volfRoliezZnEuec6DfLT7ylxi4DQGoX13lKF5oIqzeJwN3sg7X2SrlyrtJeSLjHy2hBNn/AALp/e0Me+WWKLDi+nomP4lfiBlOVu/P8bUHOP9v7TsGFnHAMwpsWyZ66ZnVxWlvX6+pQHUi9eydfGw2UD/sUPs9fE8w5iwR9lA+A3RhFYd4P2Dep/SCATCaLiKuPwXsWUOlO86Qoc0Q7f/hpSZPlMAhqYq6noVXCZ/NM1mWs3XwxAx09MySvE320BWOB+QEhMbjKatbGgB9aDp6OGcJZmcBCf4ZDSY6arzm/RbXnfJoMdT1dsl4xy1cKl1Yxe6rlFlM52zUEMMCVEOqNEgJRjR22spKtSN2GNuMw3NapZEX3gIs4uGM1c6FMCGpVdBMy+d+V1NVJXYsFp910S0kQbUlkqaOlXD9eqvNcMC3/NqK2nDvD1qWOFtWBDKF1w1FJ727ZCqrXsQhymdeVtKKTwxQG+rNOWbTzQtZtqk4Q6jubkPR6aBEMW7W8wGYgzEa+w0FdmAEWWg+VwX9vXBRCjtNEnet5WfuYuOQXm4rXvqu3HNM2LS9dBmk4ktHtqxWVpBxT5/LEnBrArooPbkVGrfTd1Tx2hC6zkIvW0BK9QnOHjaB+V6KCRvdZIBf7U83I5Osz/BykjYop+lk+7hejkZ7JNQ1MqQ80JHhMlF+4F+IGBI4eqlwazy2WjQtnVQ9u75f1lxvlHIO+rl3JYTTcynvvWFD6Y1DSe1E15IPr3yzlsuLV/MTXbA08+mngEsUsBQf0w/Ex2EdlmmZsC5DMHk3hpLWNlhdk0yTi+VZvRBaHdWHMvXLmcd+Xw8pZAhNc575rJCdY4TrzPJbpY3aQQCYTR87kStyiGhYTd/aJr58YIx0UbMjf2AgfhIf7qq+gH/63z4aDEFubEH5bD+++NUd5w61TVXI/9Az5QwmQy4NalkP55K9pgUDtTnxitrfU3qK/zqiRtePcPBHYnM37CQhE0ykrObpl3FnCjyvp1NJgOSe2yccGinlQ4pwOcSeRTeDGYtqKDiqD8xqaHoa0qo8XGXJeFIJe/4J7MsO4sVi9Tg9sTA731rehZkl78Wf0UZDnW6GJ2hBsIUP7htHVvH9UAXmvN68WVhQBvsghYZ3GZKSl0snROM/z4bvfNjiOgo4OQUrwJ2m13Y6Yc3CnnnjuXcuSqQ4FPeXvkq47wnhy9ENVPzaQWVFZ5dFcu6hdwd54MRGOFPKMAYT7MNc8/0TJDmyg7caSGERDfTdAWuTPYz92GecKxcLXn3ecgX75n4IPTU1A/51nSy+gvY86ob54QT69JpRh+E5kAVL2gNfGNpPEkftfosi9pyZrEzwcy5P9XTYPObchqBQBgNnzsRJIT74Q64kQf+5oJf5X2bb2QX8NpfDtEqXd1bNJIeXzYUDuCAhHVsXQ7ghJj1bF3dNQPfAphOPIqArvf4OM8TMOVrYK8m/b1OQIvZbEVtqR6ORx67aF45w0C6yBWFKmsfHS8UsRtQQgKJuiOTpTdH0lzovcfVbLaiRKomUJQZc6bBm/LgNlPbqGZ5eiCq40ZSEh20fjIwobF88duKnEh7KjiyB9waDdKG2WzMzmFR2X6OlOp9yGeSduu30e9l+3gMKDW2V8Ze8Xm+PaYn1NCKrXukD6QzTbTNjyc5pAFdqpre4930T4PDocsygCMtAJPST7dX9TeRkgg9u4s4c3wk/E5j9K0s2rZ+OoE4WRmncNMl5N1fB5eQHUDr5iy+EtdFxR/N9Ch+U04z3sYaADmIgKhG8GHttcbFcPMmE9LhAxQ2+U05jUAgjIarQhtn3vwz5aO8K/bwxdx+42wch//I+5UKFunqX7tX99QxKmJjWL/DSfOvWjmbnMSOjVZKnmmnRZKmvG37eaLIU/eQNTV241hkIKi3kzbFi2v4LhsdGt2IMhIUHwz0TCGfEEKS7MOLijnFSBL99A79W6mzYM0xEejopnXcwbsrNe6GvLGyDFw8tEDq6uXY0S4W3yz55P22tVpx5kQSE2qmeyjEwj/RBPROqTxNxW0Mbg4hcm4As5QmqgomPnDs6rQCKk9WF0G22+H9Jipy0onTuX3Oxx5lImI4FEkmOjoAvy4rXRO1zwT10jdZqbcnkhZqw152+a5dhymEMF093TZ5eLyq+lsxjwpZMtZ0ctKczZLbJWL0tdQc0U3LaAox6n0ymDxNckE/yybiop34dnflIG1mFYuS/WEozMqtCyTO5JoWoyE6NQzZXkFXs3rcuHfr1GjdDhz2KzNHfZV3F5et0yXLZq6BNZnssMbFsCVboue9yZ1q3qSZkGA9YBlzYFrRqFFz/uxVgGcsjhnneiK2JxJbfZD3Jzsr400ageA6R57JhXNYLVgsIz+9fZ5J7xzsxmJ1zAx/itlFc4SJyMY2anrd9EYHEtjQQl2vG7vZhcuHx23cOjUakwq/QDVqQPZXoTGpUOuUK1Z+W6sVpzGVeSslNCYVWqOPoSX76jmpymDpl4OIn6VGY9LivyCCpIeSmRM1vS55fZOF6sEAEm+OICJSRr04lRtnT/X1IBfBy+eSmalCSggmd1sMwV2VVFd7vIVRxQ3s6Yhl7kOxpGX6oTGp0M8JI3LnPJZmXbnbv5uazQwkzGZh5oV9H0zyI/GkrtQSbFKhSg1nw5pQNG09tPng/U4oaKPAFknKDhMRkTLaBUlsnC9PoTzn8+ugWEpi/sYQTA0t1Nkmziuqvo9mKYHkrTL+F46zuxaydKOJsHgJdZQBw12JZLlaaa/T+ZYP4NKlk3OnmmCTFmlTOhti+mg63j/ujERHTeck9TJz6KgFw9psluT5EWxSISUYCduUysZbpmBcu2NI3WkaHq9bsmCgoPOC8xUDlBZZCAgPxVTXSrXNV7GsJ+Qr6cxfpyMkUkYdZcD/liy2pTkn+NbFMFNVLxO0MoOMWWqkBBPxD6SS6bD56FgYoPSsGUfaXJbnqlBHGQi9K4HZUxFjdy1k6Ub9cL2MWzK4Oc3J4InmcbtrlqQ41nwnl5seCSXiColMX+TdxWTr9MqymcnkssNIyt1JxDUWc6Zah8akGv5RDQ99b9J4UGn8hn6nRbs4hm3ZBnQNdZwbugq6o6aTwbh5rFghoY4yErYzmuQLrrHq3L6A9QH1lOyRYdS3Rss7b9IIBNc7atEEl293JSUH0VNlwUkgsYkBdJdMHKJxKdrzskbugVaAdXlsXHdl74FOOFXHrrR0Nq9dysZ1E7/TcAmriZqnzzCwI5FFdxpZIIPk7MNcXU1J93TH+Fqo/KCZlK1pLHlIwV1fxmcf2Vi8fSpexRoKdmkIuS2HLSoFqbuSY8/20S3Jw54y529P8NH2VHK/EE/a8PsBddQ0XLkzNgl7K9gTn8HqWxcTx+i+H6ShLYrFK6LJyJM9cf+NxeS/ZqPfF9vfbabyuXIMX8xiyUN43mn4oAH1zQE+lmckv4pGNXPi3LRVmHFOcr2gpqOZ/PxAtqxYyvoFY8eZq6YXZWkquYv9UOOCvlbOvVpDWZfKp3wAnKdOszd0Pnnf1KB292HOPzHhNalRhyr5MG4OGyaoV8LeQl63JLFy1UJWrlQBLpTOdhoOO3z2s+hrzvKsZRa3PWj0vNNQdJS9E3gpw0s76FgRi6asF6fPssNBV6eKzOwsVqzwiHS3vZP2Dws5ddwXj6jn3MyJL2Yy7+5YZjv76Dp1krcOp7DjFhNhut7hHZNLj+NSXgpI57YbF7N56J2GT5yr2eZrzdqcqLPnsmLx6Hodm7BearuTQTe4dWFERLfSdiXCQn2QdxeXrdMpy2Ymk8sONXqdG2fcItZ8c/RfjA7n9SaNB2nBCjYO3f4mOfuwlJ7kg/ed2Id2fqIOVbMnNYPV65Zy0+puWj8u4uMFy9k4KleTvx+KOo60r8SRNur/j5YL3qQRCK53pISEBGEmCwQCwVWkbv18vrG0hcInfT+8KRiNidjvhmH83/Ixjw4KBAKB4PKRRRMIBALB1UEyqJASIticbcCvVBgMl218LY8mp6eOOmEwCAQCwbQjwpMEAoHgKuHYsYIdSYPI7WfY86Zoj8uhb3M2D2c2cfb3PobsCQQCgcArRHiSQCAQCK55XBFaAjpsDLhFWwgEAsGVQOw0CAQCgeCaR9VmY0A0g0AgEFwxxB6uQCAQCAQCgUAguChip+EKEBcn8bf317I4ARK10FgFhz+BfzqUIBpHIBAIBAKBQHDNIc40TDN3/S38eEMzOi54cRI3/UXwwx9H87JDvCYpEAgEAoFAIBBGwzQxlxu/voqUC0poO/MCzx7qm3GlXfBYCK+uLkTD5CfxXFVuHn40lg81468EtGUnc9tNkRP8VRWFT7RRI0s4d65mR5LnNWyfH2K7bggm6fF0Mo5e3qM69rgwFq6x0fyC5bLa0BESSMoODfyunfpxrzN7yhq361P2nzZcR32gx/+RbLZ07OeV/xPXhAoEAoFAcL1zTYQndR/+I++fG1EO3TYLzLD7zF0GHT9e2XxRgwFANQu+e2cjH745WahSPaVPNVMnja6fG/eQMur35kE+UoN17Xzu/KuNduqm7qljNNg0l5dLVhzpIWU0X2ZpmhMjuSW6h0IhTwQCgUAgEAij4erhHOzGYhntpZ15ns3GbQoL5XYvUsqk5rph0jvZ7Th7XNjlieuoWF3YgS77X3dUmdvswi0ewhIIBAKBQCAQRsO1xPdSfUgcBV+zOPiN8cqdbbDnpLBqQzgRfhK4Hdjaqyl+pYNG88iFWS5DAFG3zyYnRotaduGuL+PYaz20W6f3Uq26RbP5xs09nHnTQOy2CEJVCkpnDQXPtdLQP/Kt1s0L+XpqGR++YSTljkSSDCokZx8Nr5/gVIVnp2l0eJbz2PjwpIGYGNY96KTlGTe6namkGoC+ekpeqKOqQzUuDwcLWPm45299Dfdq3byQr+Tohv4VStYPZpEFjA4nGzZy/E3E/E0O2WESkrObpl3FnCgaFaIma/C7YzZ5KUa0sgupu46zrzRR0+7Ly7bBJD0egf9LtfSsXzD0rTYaXq/kVIU8Ks3YcClPmwXQ97siClv8cO5czRaphs6EWKJdbZR/bMW4OZkopYOaP5VQ2DRq3MohGO5PYnWcFrW7j55DZzm8V8I5yViUnN20flzC0ZPyBeVOJ25XPvnJi9iYEYBWdqGqOc3HLzjoF+JFIBAIBAJhNHhD+Jpv8zd5gNtFb10+H39USocyM7zMjpAQsm4IJyGqzYc/ArP6ypXfkhTHTTeZkE+e5MABN73hgYQtDSJU3zZiNMgmkh6eS469moKX26lxGIjbNpdV9xew99f9V+CcRAJzN3RR89YJDlsDSb0lnSU7e+j67VilUJFjmHu7Ctf+0+yukLFnxZGpHQn58oRnhZH0SDIpk34rkawvtlL5znHedYSQeecsFt3USu3zTpyMDfG6I+kch/5koRsJye3G5kO9w/cW8tEhhbqs2TyUZxkVVjYSTnaekLVJ2N49wQdtesJuy2LZDYHUFlrpkAC0qL+azU0BzdS+W0ZRmxbjprmsvk/C+atmGnwpFCbEAwGwAAAgAElEQVQSb41D//6ob93cSv0vzn/LO/yDBjjxfAntt81lwYZ6Sp4/RenmbG5eWUnhK6OMtKRU1pSf4vCvVPQsS+GGlbks6znA/tMeY6ouL4tvrFTTe+okBw7IdGUnsfGmbFbYjnCw6ILzKEsy2Npfx5E/W+iUAknN1qFVHPSLDSWBQCAQCK46M/ydBgd9Ncf55J0/85e/vMU7RW1oE/K4dWMi2hlSQr/ubsp3VfDwaT/sXjan0gAv6Sez12aR9YPlbP3+suGfO+7xLRSpO1hPkNJA3S473WYXrspuWl+oprhl5Jt1a+JZoG2l4s8NVFc5UerMVL1UQ11IKsnJ9ivRUliPFlJS4kKp6+b4O010RaaRkTD2W05jENrPznDyuIN+sw3ngSrOFupH2s7qwm62c6kS9h4qpbTKiVLXxgfHLQzGhRDtVkbl4aLLriC57dh73NjNLmwW39pZHnRiN7uw97sYDiszu7CblTGedgDniSJOnHHibLFwek8b1oBYosM9qVrmxLEuzE7rByUUnHHibLHS/XwZJ1TJpCzq93lKy2dLJv2Wt7hqmuioN1PVrkLb1EBFvY2q+gGcQX74j0qn6i/jxMtOus02lA/L+LRJT9QCw5A3wsTyJUb8Sk+y7z0H3WYb0p4y3ivXE5PrP85jEa5p4uDzvXTUKyh1ZiretPwVHvIXCAQCgWBmMsN3Gso59MH5/7ZiOfg2z7vu4aGFS8j1r+ZAv+rqF1FRUPoVwo8ZOLMmlNyAS5xrGHDz5x+FXqTlxx+ElnzT9wjuHqBHSiLzrkH6DvfR3ajguuB8dkxsMJq2Mqq7RtpQ09HDOUsyOQlOqNFMc0N10TUqT9M5CzXEEBdmh7rR36qj4aT2Ms1ZM111o0JozDaQFa7maOlrc8KQqWvqGcAiBaCoPUaKlGBEb6+lqFA3clzHbaahWc2SaH/fa99kB/wm/Ja32IfOzHR2WiDYzfmCKVr1GO+/psVM2/BYddPc3Icj00CI0kttrIF4jZ2mIhswYvg1n+vCvj6YCKWdplHjfKC8h25Ji0AgEAgEAmE0XDb91U30LMwgMn4QymbOFZbGYH++/7KWX34pggy/yUKV3NR/AI+rA/jp3bV8/8WJrj+a6CC0b+5WY00Du99Xs2plGrn3+aHGhbv+LAefH6BHkQAtpiA39qAc1n9/fBmdus9PvQ4IG3uuw8/ch1n663Ivm0wG3JpUsh9PJXvMbxyoz1179XH5a/FXFDpDDYQpfnDbOraOG2VdaJSxQ3u0YSUQCAQCgUAYDdcVUXdmEI8COIF0/qPYyjMLOia8enXgONz7p3jqbtCwbQsM/qWfJ2T/K1IuzYkajp6oAVnGnZPCmk0LyV29m0/2+QM2zD0yut7jvP32+G0Mt03zubVfX4djSoqi2339GBZmsxW1pXr4bMVofN1lmgmo+m30SxKhnVY6JDW2V4ooavEbZza4ZRF7JBAIBALBtYJ8rRXYPzmGIDpprdfNiPK07irnyOEurEo7De9U8PFzLg5Y4sakcda7+eW/BHD3E/GUR/ix50t9mAwyDz7ZwSa7a8rfVmQvdgTcbuRjjZw0q1CP2kFoauzGEWYgqHcoLn/Uj3NwvDLn1qnx01zONa8hhKeMaMDmFCNJdNHTNBXP8iAdFhm1fPnXznrVht6pyshTnE1KnQWr0USgY3xf2KxXRrGWR02f9sRAwqbYlPYoExHKiDiJjg7Ar8tKlwT6Jiv19iCCQm3j6jXRuQ+BQCAQCATCaJgS2uV38sX1OcyKMmA0RhG7dAt3zw9EqTnK8ZlwngFQ+t0MBOoJ7rTQOuDGGayjtsMFdW4e+9cwHvvXMB78x1h+ZAnmpr+zcPrXveSZWj2Nnynzmxca+cO2OjZpz6tQGtRBKjSm0T/SuC0h9TkzVmMq81ZKaEwqtIYRra9nQyZ5201EzFKjMfmj35LIykAr3XUjux8J++o5qcpg6ZeDiJ+lRmPS4r8ggqSHkpkTNVadsyTFseY7udz0SOgoBdF3jMszycxUISUEk7sthpDWas61TOXa2QHMLW7kubNJiQeNSTUlg8bWasU5ug2NU1PQw1utdEjxJG+V8Z+kvy5GVHEDezpimftQLGmZfmhMKvRzwojcOY+lWdN94aiFlmaZoJUZpMQDc6LZvtiIbYq5uXTp5NypJtikRdqUzoaYPpqO9w8ZBGYOHbVgWJvNkjw/gk0qpAQjYZtS2XiLSkhfgUAgEAiuIWZ0eJKr24I9LZsbZucCILmsdBS9x65D9VNWcqYfieDIAKwt/bjRERiuZ9DhAje8fsbjzk30d2OsVXjyqUCqJIUn8lTocIHLTeGb8OO34kfd6R9PxiPxZIz5xvh7/0PL63n3uI5Na5eycR3ozx3ilf8b+mVzDz1rZpE9R4NaBre9k473T3K0dOQwKm4zNU+fYWBHIovuNLJABsnZh7m6mpLusQqd2u5k0A1uXRgR0a20TUnR76LmpIug7TlsUSm464vJf81G/xTtVvm9Ik49kMGC+2KZA/S8O/LugLcknKpjV1o6m4fa0Nd3Gs6jb2rh4CEjG5YsZf2CifvrEuYLzt+e4KPtqeR+IZ40tQxuG73NddQ0THeMv5PODys5d3sKc+6LYm53HQVv1GC9P4SpBKU5T51mb+h88r6pQe3uw5x/YsxVqgl7C3ndksTKVQtZuVIFuFA622k47OAa3OgUCAQCgeCvFikhIUERzTC97Hxczb+ZzpH4D56Dzvd+T+H7AfX867djeEmvZufjMv+WXUPRb2BT/ix+850qin8cwVOKbgbXykTsd8Mw/m85pb2+eYk9j7tJ1Pze83iYQCAQCAQCgeDaQhyEvgIc7wSyofwvdQAofqAphyNaj7L93M817Pwh/Oc7Sfzqjx3cHCZz4/9rQ7oniv8vSDMj61S3PJov9FTxSa8IKxEIBAKBQCAQRoPgsil72sn3O4NZauwe/n9nno0cDldRWQd58qlo8v3cpDYGsiPMjLMe9hlnphe+b3M2D2c2cfb3Uw8nEggEAoFAIBBcu4jwpKvfBTxyRy3lL8TyoWZmevFdEVoCOmwMuEVvCQQCgUAgEAijQSAQCAQCgUAgEAguQIQnXSZJpiDRCNcYf/fjHwLwi3/5kWgMgUAgEAgEAi8QAeoCgUAgEAgEAoHgooidhmmif2BANILoM4FAIBAIBILrkmtgpyGY+Q/9F79+/iVefPFFXnrheX7347tY5JrZp3J7736H+XfdP8Ve2YTt3v8j8Z/eIuWf3iL1htVTysYdsJn7f/0Xnn3zDZ598w3+8L2cCVJ9le+99eYkv5sejj/0S55983m+v7phZlrOs5az7qY8FoU7rmIpslh8883kZQd+rl815G5g04YcEt3X+tGmAJ5evp5jeWtHfpZn8064xGqH66qWzBG1kGN5i/hNn3lmNJUUwC/nrxpup72hg9Ner8fn3TDSDzlh3NfnmOb2TOWHLQNXdCxdvF2ieHlD3pTbbrpwB8xi97qRMf+auvXScyRF40Pe2TNn3E6Khu+mLOJZv84ZUyJFn8j7efN5ymy5quW4N3n5tM+/6wnf5NTMmPMeGa7hscQF7F4zVPZVuXwUNME6JwXx+xWr+T+p4zLl3Sh9aaZ3avSjP+WflwfQXfAGv3/nDB2Jy9k4T0uAG7hOnwzoXnUHSyIsdL7wb3RbJOTBqinlE/bw7awP7+HkUz/m404/nO0VE6R6led/eBj/CX93/aMYMlgwOxil9RCn2q/elbeDKUYCJDeDljbg83vkr7ulj/7IUKJT7NTWaK/5/rSW7+c/mwF05CTNZnPWGp5wfkhe99UTFn5thfyw1UWHPmBGtNHmuDmsCGhn3+4iPlVpsTvVU5KlF6vXa8WfcdLtJi11GTsDr0fJ0cZTezvQ2tVXdR2SrdX89LMatEokX1ufdonUffzx6D7ecdpBup4ik0PITTahqnPOmBI9lphMWFU+XzUGIJi5+CanZsacB/i79BV8MbyXulP7eaZXwWiKZb1GA1xgOCg9vFPv4Pvz0rj1SBuv6y9f5Z/RRoPLcC8PLA7FeexJHv7Zac//LCzm1LuA3/V7HMMvMhJV/xEG6s+gIDFVP+nKqEjkgf0UvF9E8aTXuXbTcLr7r1RkGEhemEyYu51zxztBvnpjymHU4scg5vrP13DRNPTSnxWKMSQcanqv/S61WXlP0QFW3qs+gzFwHetmJ/PNj2r4VdBVMorcTt4DUM0ML0duQCDYzlHQr/BegAtU6mmvV4nLQQkQ4rxe72l2k+9yT73tps3r4eZTxVOeB7i0LnPU5bzODIYZiDqGddE2ij7uoEEdLNpjBuObnJoZc17RJ7MpxkHdvk+4zRkCEtBbz+8mSf9mcwMPpGVyh385ryth17fR0HjTHDLVzZz8835gJlvsaQzc+DckLIolEHCXvsxEfnvn7H/FuDmbCIOC2t3H4KmXaf34LTz+kXX0PfwY800K4MbOYqL/6W0A5OP/TeUn+V6WZT1ff/5RlhndgBMXy3jgvbd5AHAf+QkPPnliOOXWX7zN7Ukek+TC33n4Kt97awvpyoWhK+Xs3/AYvzNqvEwzNOWWvcD//F06ISoFdVcx7//sX3ihyPP9xvU/4o1vpdD8s3X8ND8O8IQ1FW4d9PFb3pfHGZlJbJDEQH0ZFRMYDMqiDWwO7+XcOYnI1DD8VSANtlN18AiVA570SStvIl3XRvHHx6kferwvY+0WkqR68vcW0B23jA0L9Ax0qAkJ0yANtNNkDyHapEIabOXcx8eokGUy9VokRx/OhTdyQ4gOWQJ3TzVn9xfTKknDZfJPXsTC1EgCNDIobmxtJRw/XoOVkTQZa7eQRD0nu4xkxJrQqQCln87TH3Gi6cLQhHZs9hTC/aOAiYyGKDLWLiLBYKOz4ANONGquoSXBzZneftYlGggd9CwKi0OS+UFiNNGBfh5ha+2i6PQxHrdpaZCl4Tq/vCED1WdvcyTlBrZH6dHILhxNp/nJmR7e06kBNY8lzmVbYhBGGXA56Gsv4S9HW/ltoGZMPskuBejl1K69fC3ANKaE9yYv51HpNP81MJtHZwd7vlNfwC8Lu3hJP2JA3hk+h69nhmOUXTiai3jLMovbo2t46rNmngvwxtAM4OnlS8jVugAHMJdHts7lEcB69kPyOj27W+6AaF5LjSMm0B+NDNjM1BWd5vFuNyUq2et6eW+1BvF0ega5IVqQXDiay3ntdB0/04/stq0yJfMPc+KJ0UrQU8WrTZO4UdThvLw0i2RLAU8dbPWyXXzn8Xk3sD3UE8Ywuu2GR13ALPYuljn8vpnZ6zNJ0gD9Tezbc4q/NwQAGn6xeBUrm3azuHH0X4by5zXziTj9Jht7TYDMYwnz2BYbiFErg+Kir6uaD49V8u86vU9lvjd5OY8mDo3LukMsPmcflyZWF80vstJICgD6WzhcMjgNfeoZQy2Fp9hm8cyvB1NX8nDwOX7zae2ouTLUrtJJnjzSxuv6OF7eEEvPJ4Woc5YzL1ABZxdFnx3hAZX/qHaOw6gALgVW3cmxobzq9r/Mbc5I7+a8JpKXl8whouR97m0/LwcCeHrxEhZ0HeAfS/vJ9/Pe4M+NjCTG1sS+Xj2EePc3iw0RfCUxDMeJwzyiD/S0hXXfqH7yzN/M8veGx9vj827ghqaPedO0mJ3xBsBFd9l+nqh3TVreWE00P1+SQUTdAX5QNUC+n8o3GTQ7FKNGBqeFumOHeXTAjwY5mN+vXET8mTfZaBkvB3JjF/F0Yhcv7iqjNWfdRb/ljEzjU20r71R38CvVzHns9vLnvPfy7lLcFBZOWN85/tRhAG8u73Q2Ud6RzrqYMGicBpt4Ji/5q5Ij0A1W0rj2l/x6+yxCVSBb6zn27GP8V/7MKXrf8m+RuUiH89NfUdVgxHXjTlJj3FA7kqY/879J3T4bXeWHNOXnY4u8D9PmB0l2dFGxNx84RsALj1Mtw+DWn7Ag8BR1f3mNAfAxPOkobz75OPs0MO+rP2VrwHHe/O/XKVFJ48KT9vz6cc4Z1nHHj/JInDAvT+jSyK5dNLlf/yYbQhxYVJIPaTxCL2OxkdIXn+D/9S7h7vs3sfm736Hxnn9jr9eP2k1neSB5VgQGZxf1p3pANd5oSPbXoKhDSYg301Zxkmr9bNISw0mYG0Xl8TYgDpNeRhq0DBsMkIpep+DqMWNFwmHSokeH7CynvHs2acHhRFnLKGxKIismhNBkBxW1Wgw6NYqfiUj/dpqKS+gLyyQ9Mpn0BeW0nvEoSepZy1maEYxsaaK6ohV7WCapkZkszGzkQMn5rflk9Bqwu8OZH2Ons7qQcruOsIQw1F0TtXMHDjeTek8GU5KJDpAAHbpA17QInc+TpAAD2Jvo03j6J0mnp6/2NH/q6uecZCArPpXtq1bxk/c/5gHdWK+gYc4KdvTX8PaBFgq0kdwZpSfM6dmVy42ZxxeTVNSdHNkezksNIKa/iZHB59nONkTN44nZFylkbA5/11rCX/adYSBqIQ9mZnNv46u8NBjuWZBM6TyaFY6j4ijP1DoJSV/EHbP10OeTlPKEprgV8rLyWKct5sWDzZRoVWPCk9z+BqTmSt4528kZt47kkCRuy17Lfx5+lW1D5fG6XpdCCuXPS+eTPlDLZ/vO8ak+nJ1z5nH3MjftBzzGkKJP5PvZieirj/FMlR1Nwhx2ZgYx0UB0hkaT7OeGkBCS+xphykZDHw8f2s1kYYKekIZwvrY+7SJrdhQ3rpE5fGAvfzDE8PXsdNYsbGBJiZWjajsftPSxMjGRvz9bxs9CPN9xBYeRrOriZL0MJgAdMdo+ik6Vsn/AQa8hkO0p87lttZvOCxTuS7Gn9ihdNYHctmwR8yfpi/9YnEFsZxGvHWmlPSydndlJGBVfdx9lfpKRQ66mms/2nWM3BuZFx7A+UAcWGwC/a+/gK/GxrNQU81uG6iBFMj/cScvBMl7Xnx9nRhatzqDyyD5+iInbFy5i3rJZfHWo7heGZqkOv8PT/Z4esTjDhsf0Jee8vZX/LIvgl1nL+JcPP+NrOhP3Js0lV13HrtPd5Bv9fWqBzSGh0FrKS5fa2ZRkvhScwBdmJ5KkB3pq2eWjSmaYs5qbak/wzO4huZCRy1dqPibfb4IdDk0kP1+SQVzzQf5xyGDwVgblhs/j0ayQERmUnMX2FXn88rNd3OaWaO6VmR8cApbxBv0qowk6yskP1JB2iW/JNjtKygLuT5G4v6eWzwoq+b1THuWwuDpc/pyXvZJ3XhmlAYHQ04tf5hIOzA7yGF7dtbx9sJx/N+gndJ4VWGysi43mm0UT7bhfXN5dU0aDVvYDZnPjzX3UvfIfPNWSwuZ7b2X51/6Dr1Y8xm9b/GdAKVdDRjgBlS9SeOJjj9h8NZL6b21m7nCaBThXphHUeYDKV3+NHaD1O9QFP0/Eghsw7N2HlT7oPYMC2JwSuB0oPQVTCE/qo6X4LC1AigPARueJggnDk6wVZyhmKXakSfIaG7pkfORRvhvVRvkv/pGX/P18SOPBsvvbPPnKIHCCW/0TOH7/IvJuPcfeXd5qHtNbnohAoLd9EoEURoBWBlcnjYcOUDqoAgKIiDUSpjo/MYPQaBTsPT1jjCOdGhyDnkPfswL8wdlD29FKzuQkkBbspL2gnHOxEaTHaHH2yUAq/loFydbOuUNDuxg1QYRtTiY0IAmoQjHMZVFaMH7dZRw4WOnZWajpRZeXR3J4OpQUDX3fhE6j4GfrpWrfyI5IS3U5Fw1ekNQYUMbsWADozrXTlRxEmKOOymIdkw6VGYfMjtAM1oc6cFTVDS/grzQV88rwVpKV9+pKiAlbzcJYPVxwjjLUr4WnTg8J8/523j/HsCKaodVBXwVvNQ/yUoCfZ3v4JBClH7ed7XApPHGxhpPb+OxgPb8K84eWYubFrGZlRBTUeWb+t6Oj0fQW8kxpr6cslaeJCV7FSh9b5KjLY1hmI4HioN3u4D3NWINR3VbJ7UPtB3boLMevJYadMbEw7PX0sl6XUq7iZpGu6uLwpwV8x2SE/nbeK6rmg+WzWa+r4DmC+VJUDGG2al472cnvQnTQeJaY0HVsmsCDq247x/HYhWR2NrA79MrtiHlCGjzhQBcbfy1n9vOIFA79zSi18TyREsVN+cUcjdLzfkc7j86OYV7g6eHF+pGwSDS9xRxTnV+8+/mHiiGHkQT09/BeZS0frIhhsVw6onB7s2vvdtGIg22T/D46It7TF4eq+HeTEbrLURrDeTjO19bxJ9SgYC0v5jvnwwSbKviP0S1jruZY3yqWJgVCy5AiFB1DsquJTxoMMCqCwll+jHscGqCbt2vaODU3gsUM1f3C0CxbP+8pRs8fjgqZ82bOH28v4v221WxfOosvFQXw5SQ1dftP8iOjrwdyAog1urE2d9MgT6yExcoGHkycxeb4YDSKja7a0/zpvGdd76NOM1jFq4Vmfheogcoq5sfMJylaAxdGHOuC+cOCucQ1H+YnJVbyNWofZJCGe+Mj0HSe4mcVFk9cfN1ZwkLXsi4zmZtPdFJg6WNTcDB3lTbzkiGQbwdr6Ghu5zltEOlGGWtlG0fVBo/RcJFvyT01bD5UM7TzksTaNYmsdVmoKyrihVYrr2uujso6HXPeG3nntdYeMIcvBHXx2b6T5PvH8OD8Ody2YoCmSYyPZ/v7+Dt/I8mDTuDywnRn/EFot86A7cO/5cdvDgKn+MiZytv/sIjFW4L57e9tM6CEyfgFKpgPvTqifw0WYDHfNNo2RB+mMHjgHUZvCusrq+hYHoPepGA1z2xtbODGH/GzG0KxHfgpP93rN4U0fTQXVQKeVSj7jXNUP5BJbNw8YPAqlAcCVWDtLgQmss7D0WoUlO7mIYNhlEHg8Ehke5wBneRmwFw3vPAPpurR4WDA3A9oCdKpkAcslKhk0rQ6pMF2Ovtl7EYtfs5BrG0qlEAT/mroazg1rOSDA7cCstqTb9jcGILlfrrKSrFyvi5WbA43aFSEKgqdksTgLD06oK95dF4XIw6dGnA4xxkMHiop+LRyaGDPfIvBMG/TcIgCgKOlgP8ts9Nw3mDUBPF0ehrzg/We8BuPagKmQOgcG7JhrWnguYCJF/5S2yAY07g31UZgSw+fuqSpe8P6uijRne9TOx0OCdQqPIfaAkgPlqGuY9RiYKe8x8nKK3HAWNLzk7Qs1kX4M+JnUMASyH19zdMa8pMbFAjtx3hfOzL/pIF2agaTmRUsg2Vop6i1jT8Pe8fcFPT2TWg0oPTx8Mn9nv/2u9rnRyw0d2iGo2rfcdh5QlKNqmcjZZZklsadV5wDyQlXYS0bO+ZWmZL5h/RYYvxVo21R+oMGwWmattJu8NdD37lRBgv8xmLhYZ9PfPbTaZUwpGXzbEEF71sGeWncmRc7e1v6WZmSwt8Xl/GzEH92hIVAfRG/Dhkri5u6ugFPmJE8MIBFMvl+56NXc97NT0oLyVg1n28td+OoP8wvBgzg83APIFTvhkkuo7sjbgnfTdVDTxMnj57h91YXR1UqmGooTmfnqB0nGxaHBPIF7S0Fs21pHEnaGnYd7eS9UL2PMshETJALa0ETrw+H0Tg509PPusRwFve08AOrle8mBbGwp44XEmdxz9xAKrvf5jklllCjneaeAcDgxbc8HLO2cay4DWQNfxuRyLaMpXxvvps78t/kHnfYDF19Lj7nvZF33i90CrUfHOefdcHQ38rpqjDenjtrUuNDtg1glwIwBlz+ZQHXwDsNfXSUlgMJACQcr6bRkc3coEzg9FUvnTMsAhOguM2jlM+DOEcZAc7wKI/zZOWTpKwcX78+vRvMM/dwmjtgM4/dt5Cwqhf59yePThjK402aCf1SwXOBE1elPH4MYjVPvCja4wLxV0F/b+lwvw6mDBkE3e2Adij0aJCuUWE/WqM/fgzQU+kH6qFQoe52z76EToUy0EO9LDFHp0W299AhSwzE69HRT3eVbdRugA61Clw2TwxKmL8G8CNk2XY2jhtCTjqHFHq7UYsf/ZjH5HUxPLslLouV64GR25PA7rTxiUoNwztMATydk02uo4bDh+t436EAKvLmr2bdROux2cxkW7bHm87yFzLZlryQ+zNk7ldcWKuO8oPqAZ/in72u1+DgmLL0Oq/EFYoyj2ctYVNAO0UnTvO+1YVFlshKXcod026g+BOrc4NhIT/aDGPfZndh1WhH0lhdo86bwF8GbXz3mh+pQ4pzfBxfLa/lmZhwkrVmymttEHD+fMksfpwdh1xdzGv1rZxx+4Eqhq+tnTXtpUnSGUAZu6ctW60eJd036czjpScwpqaSm7OCuSr4jtNC5cF93OMeie32HM5MJDfsBMipZIUPUlnYRIM83QqhD3Ne6WR3k530eCe1pU3k+4VOv1qpOEDRg0aHUaMmrtfJ0Stt3wbEkNTVSqc+gXXpxfy+TRkzny6NasId5j8ODPDoeUWyo4tGVSLRETbuNwbR2W0hKTIYd38QYUo7p5r1EOV70WPxI0SjRSMp4HZic8jX6K2Z3sg7X+ihukc33KZNlj465HCMOjtMYBdIDifT5WKf0UbDp63tPOHVSY+rh7qjDTNgkE0wvI+wArVJgaGoFXV7Cx2Aae8/U1863usi9c7kWTCHL/zkIZZry/jsv39Picp/imkm8Ut1F13F8thx1KknnAXnDYKeUUaFPVCLHw7MzZ4/OB96ZG1TDQuyZH8NkqOXPhnOhwrZrLXAPPQ6BbulHTAQqFfjtllolyTCA7SosKH0ScNlGZxlJEA6b7TMw1+rIFubKKhsGy8Q7CMuijk6LZKjC0u/5JVHbux39FzzDN+exLhzGoohknRdP0X5J3hk+FYTPdsMim9eniFP28+bzvLzJkDW8N34+dyRmss3Gt8m/4IbKiTl8u+HNujGGi+B6itxSDCU+eESLYc/44H+cI+ioMCKSQ7dXl69+mkclMntOcoPK8e/t+A5ZyJe2bkAACAASURBVDGURlIR5x5RdL6o0+LjgY4rgGtSb7K3vN7dzrdS41ipKWYgPAJjXw3H3CNtfVdYGEZrOX863TAUh+zC7a/jO26Fqd13555QoQCoGbSCYWxfug0GjMoUKmnv4dHi4wBkaEJ4NCuL3GVz+ftdI+c3cDZR2J7OpthIVrrDiR1o4MWOAK8PDnuLL3M+xpjKvQnQZ1GTumwO9+U38Jy/r/PMgd0xuUL+QeMpPmjW84O4WaxbuJLvSS6+1VjB7spa/uDW+qjMezvVqnhxXyWH5y7nF1nL+ZcP9vI1nemyx/qX9fqReaj00NybQVygkcVBg9SdaCUhJ5qvNhowWpopCPAlXFDmFkMkt89OIS1IDf1dVBQe4lcdg7yuCblG57w38s67nGr6rOCjPesKMGJUXDANl9nN7LvXTjbRIAUQljFy/3RdbjKxfgr9/z97dx4c53kfeP779n2ggcbVjfs+iIMETxEkdUu2Dofy7aQ2WWcz61nHyWwmWztx7qS88XinxpVsPJ7ZTKamMptMsnHtxGPHVyI7EmVJFCmCAEgCJHGQuLuBRgPo+z7e/aMbFwmQDYqSKOr3qWIVgX76vfC+3c/veX7P8/ivPyAHOU0qqFDS/JnNDypTH7aSrXfXRWIrChZHK6r/yi3/xshm38+0j5v4ggpod450S7/wRV5q8jPxf/9v/IXbcs9loIjqnrbNP+0nW2hW46wsjGwpY0BfsvlA/VpT3bt4PHfWYDVCOkpoXndLhTySq5ADOkVFUTOk83++dGUf1SUKSjzKpEaTTxWKkwrkxkOYdFkSoWWgGqNBJRmZAcBpNgE6lKL1e6aKww1l6NNrrIwagUUSSQXIElxwsbjg3vbPvbz+7ZcLRpREZMfZoHY8z3IretVPaHqnD3Urdcef5aMfe55TXR/8xePVHR4z1VxJk+kdfpJmk/zb2QWmtQYM2ttHIOVabHX32EQTZtyXhZpq/nkwufGcdNjfjb/HDi2KSiVNpTtfn4LPS9n52/CiPwildrp8EX6kZrb9+6d8wDcTjoDTwS/4ExtfWX3Fu8ykp6vk/zv1FAMHyt6DxaxirMY072iMjybsYTxuo6m2iqMVZtKz2wc3G3eYGvVTJeW52YJ2YVQyd624kA/CtjXQRWNQVMWxzGaq6P9is73jqzSWXOML7iAY9BQl1W0BzH/wrEJLN79faSc9NbUZUNyjnc694GdesfNH++sxTb3Nb759nXFLN19q0dx2ne4uxEpYg9VqvcPnRYw/mhvl6dff4GuX5/Da93H6yef4Tn8rXwtv6fHV6XlkfSpQnZ1qyz1+TmXieHVazrpGOOMr49CpDj4f3cvzEcDt12KtreFTsfRGe/MBuwW8XgbseiDKeChLVVU3zcZFrgR8TBsrebqoCJZXCk5rzNrbefXxx/idY600p+f46Wuv8MnzV/gfguldxzM8otXQdT8W+1W07+ozX8jnXSH+n3AIsNNsj28JeIuoyMYIxXcOzk7rDaAGcUXf+VivBzpoaLjy33hzKkvF0/+GP/jEIdqe+Tz/6Z8foTJ5k4EfPihrC7wBY17CbR+j7shHwPkpsp95lvptZS6jOztBsPvz1L3wRUzOA+D8FMoTX6fq538LM+/narwXmF5MoT3ws3zp2S66D+6nuTz3wRA89GV+43QD2st/z3f8h+k+uD//r4myfAtUIWU2Wkef/BN++7NHaHvuS/z3z3ZhWbvAa/+9BYDaV8eYSRlp+9R/5VMnenjkS9/gsx3bm8Xu9/HcSaXZgCYZZ2Wj5ef2CnlaVVD1dir2N1LVdoCTfXXYFMjEc11MuXELucAjN9YhTmJej2otwaJLEw9GgTpsRgALZYd7aahtp/uJPuosSYITg4xrNUCE2UCcrLWGR0700lZbTVVbLwf6n+Cpkz1YN+6fXDCSiRW6gmsH9WUGFN8iV+I7fWC2U19hADQYrWV80GnCXqYTZnqO7OcPlCyfs1bzd33VFEfVHStSd/J7+/r5O2cpv6XN8qLextf3NdOcXsW9atmhch3EnSmi90AtX8govKgoe/qS+5PFRZJFHfx8dwlfyOj5cttBjhnejfFcy0x4tVT1Pco3VZUXLJX8xYEOmpPJHb9QCzmvvwz4Sdpa+axTx4uKlhfVzdf/ceEm48Z2Pn2yla9pFV5UDPxqST1/c7CHb8Zys/b81yU3K8Zmnj9czhcyen6ldj9Ple7cXL599qR3e6GvMNP+LNb2Pv44m+ZFRctjmcyet3F2KYa14wjHioKMz21PEfyrtTWS1g4+02vnCxk9v1rVw6/VKSTVnSrIa8ysaXF2H+W3MiovKgqP7HA8o/4w1HXwVV2WFxUtz+YHxy8uzzOeKePIiVZ+K6PyP5d28Au19xKYVvHfjnfy56VmvpBR+Jy1mu82lYLXy0jJ9orj4rKLcbWCcnuI8Xe0RkyY1ahmy7lv/i0KfeZ/pa2HA+osL18KcUG7xm9cXybb9Rhf1+51lekkE6EUVJYWELhm+Y5/js9e/Cn/41uXeC1gxpZvdLjo80FNH79fovCivpQ/66mjNvZO6wlpvnx9HHdx1x4DoiR/Pb9Msnw/v9Zuy30GNeznlD3G3Ph0fgpqeDMUgPpqKhfc/Ht7gpEVOx11Wny+tcLbX4wKqZlBvvnyq5wcnedfobtj78s/azvFf3jsMf6i4Z1dmzt9Tt2vZ76Qz7tC6LwzXIwU0/PoEb5Ghs9ZG/iPnZXgu8mr8Z0bVPZZLbC4zD9UvPO1ih7w5sN5vv3Vb2L8vV/ikz/3m3wVyPhvcOb/+r0HZOakfBv6uX/HqPF/p/uZf0Er+XUa0j/H4S1lLNf/FXPp36H4qY/i7HsRLaCEPYSunL3D7EXvhTDf+Yvvc/C3PsXxf/E1jgPL3+nly3/ZTqjUSrEK2r5/xpf7tr5nc82DQsqs/3z2b9N0fv73+T2tim7tKv/wr/+I1wzrLTJ/y19+9wg1nzrMS795iOT8Bf7u+2E+8+nNW/T+Hk/u9tc6M7B6a+ycG4uQjeTSh7ZVyH2bFfKFGRcNxQ3Ym/bTl4qyNuUm1FmNPjYJWLaNWzDaLBhSQUJRhVi3GRMx1ib1oKvAYlQJL8yQrmpm30FQUlHWxi8wML35pRMZusrN/m4ayhppKWsENYuajOBbWNoYwJwLRiCR3/9d79uDNZRro6zcmGDnEX8L+IJOivRrzF1detDbGAoQ5A+GJvjTQ22cfqKV04kAc0Ov8fXKR/ndGjufGPQXvADcjC/Mow09fLpLy6cBIksMv3aJ/7Vkh9ZZ1cufXV3kj3qO8MUaABc/+NYIX6kqLB1MExjnG6NafrnrEb7Yllun4cx8Jx+tvN/XJ5ePXtNzgP6nquhPR1gaf4svZ7r50wMl9IWntk9jWsB5adcm+bup/Xzm6JN8RQHmzvGj9VmY1FV+4e1hvtHWxhOn2viIBkhHWHNNcy6b+zsosVn+9ZCR3+07xheb1Nw6DdezfKZ7hy+z92j2pHX/9uZVDvR18/jTVTxObm2AN/JrAxTqr9bW+FJTFYbINBfjlm1DaDSBcb4xZuSX2/N/d5+L185cwXLyoxwvd27MPLResfvG9Ws093Xw6Wfa+XR+/YwLt6yf8d2FUZ4qPcjJx5/mK+TmnP+nVR2oq/zmwAR/eriLTz/TlVunYWiGnqPle/4+GQ/UcrLrKIcN+bUlPNf41rBnyyDazftnzKel0+TibNJa6IyPO+7zL65OU9PTlj/3rX+Luz/zP2k7zM/Xqdx47QJfKc2lFi6uXOVvFk7xS/39/OGPr/CVPUy7+u+XPfx8XTXHUtP8VYEjqceSAX5jPADm3OChf3SN80LZQU4ee5KvpEPMDbzNmX1P88g7vWmTC/yXyRp+d99xvrrwE/4nTWEz9lz0jvCN0W5+uf0oX2zLr9Nw8Q3+ZbJ042vhQihMSFOMb3EJcPLvgiF+qdaM25ctuKap80zwHICxsOc3mUwDOnRVTj4/fu8TNdzxc+p+PfMFfN4Ver9/6fIQf9bZy0eerOcjaoaw5zrfGt5t4g47+8sVfFfcXNC988kTlIaGhvezmfsDr6kkN+YiGovJxfiA+J2v/xsAfvraa2Qnvsu5SdOH7hqo1jYOP9pBhe8qP7kwKzfFB8z64k+fvJF4d/KghXi3KZX89WO91F39h9sWy/pgyy3e1z3+nfwifeLdlK7sZdgxzx8Orm70eohN1ZU9fK87xT99+xK/XfHOG9tlPfmHnLa8A+2vT6D99Yk7vmZ84U8+NO9dF4hpKSrr/FDeF/W9bTgyXmbOT+89UDYZeWVfJ6/s65QH7D1h5xudtRtd2r9S28cLFVFuTLslYBAfwGBBwzMaI19ubaZTWWFkKvWQnWCSv55dpbRz35ZxSOLdoeNPairxzc1JwLBLFf9Xq6tIj1+/bTpjCRpEro3j+a9vqyRrPvGf0My9hea7X7jja+nOn/nQvHfd/OwsnrCGcvXD1dmWKW3CHHdx88q5ggZM/3ZtzbaA4Wt1tQxFo/y2a2Hba+LdkkW11vLEqcf5yhMn+KUGhaW3XuM3MuVyacQH7262NvO7T/Tz2WoNc2fP7pzS9wF3cfkq/3EyidGclT/4u6aYPzvxKI/63+ZPV61yOXas4VsIzV/kz2Yz962BSUKz+8RifjCmq0zs+zgWrQ4u/RfSL3wTbWAO5cf/EjJJEp/4z7u+pvzgi8R/5s8/HO898dsApNw3uQFgsWD5MN2scQ+uCQ9gw1LAbfuszYausZ6/8wf4A4cDdybFV1dWSakq/2f+tT9eXpEPgXdNit+5PnLLl0EJWPlw3bfiIWm1cPMz5925/+udWPQP52n+bSIKxaXyjL57NxJvjQzwx+ks7hKbXOddrtE34xmwl9y36yNjGt6h9TENDwqltp/4z/z5xs/G/3wMMsm7vvZheu+v/x9/CMCf/sFX5AYuQJ/ZzFcdm6NuPzU3TyrfO7P+2unZOblQQgghxENMggYhhBBCCCHEHcmYBiGEEEIIIYQEDUIIIYQQQoh7JwOhH3Llx5/jVFmImR+c5Yp2t9HzVhqOn6Cr0oxBAYiw8tbLnFt98EaoRer7eelgGZnxb/PahPmh+TutdD7C55oqMOm1aBVAzRBfneLqW9dxKw/ytJpVdJzspa3MjFYBJelnbuQCl9yJD9gzIMd3v9WffJGD5beuJB3B+5OfcH7HFcgfDNrmo5zqqKHEoOaew+VxBt++yZrMbiuEkKBBPMySM1cZmgmycIfKyErnEV5wGMi4rzHkiQNJYit6eAC/JFfLLFiIs7L6/t+6JfufpL/RhkHJkFi6xlsDM4TvcVuHi62oQQ8u7yIr8SJKm5pormin9/Ai7uHAA3p3WWl74gidxWnCM9cZi5XQ3l5LY3cPvoVBZh+QNQScFiNK0ovnAe1XfVCOL2Nt55H+DmosGpSUn/mhMwwv6+753ig169BE5rg44d38dTZO4AEOGMIN/Xy8txJzxM2NiRWUqg5anZ0c7B7h1esyP4sQQoIG8RALeRYI3aXMofIi9KlVpgdu4Fqv6D2grWrHLSaU1Co+r+59Ta5LOI5yuNFEfPoy15Q6Ohu6Odp+ndcm7633Y27gDFvnH3ItGCk+3USpsRR4MIOGlc4jvFCsITE/wJmRtVyQWl7BSYedakuW2QeictiC1Qhp/xqeB7LH5sE5vpZDnVSrbiaGwxjbW2nuPYr7leF7PK4ajAZIr63gWnB9QD4tHZxsd2BNeRg/f4HxqAambdhPN1Fa0g3MyBeKEEKCBvHwaXvi43QV5xeWWRvj+2cnbynRw4kXWqnQ5SbPUnHQ/vGXaAeyy8P88O2FgvdVf/JFDpvcDKzY2d9gw6CAGpph6MyVfGqNg4PP9tOUGOe7b4xvVJaOPd+Lw3+FH56fwdX7JF+qy+CJF+OwaVD9SywaHNRYNKihGQbOXMGjKJSadSjJDIZnXuR0kQ7UDAnPra38Vpy9ffTUVWDVq6CmiEwP8OrV1W2Vtdz+R7mWaaTDWYRBASW9ytwPznLpLmkinupiiuPLDIzO4lbmMJV9jNbiBsB7X/5+GasJI5DJxB7Ye6y/qhR92otrUEv3sx+lfOb7/E0yxUn06KvTMF1o0NDOgaeaqTEb0effko56cY28yZV8S3fGeoxnny4nNX6DWH0nNRYNqDH8117njanNKXj1dT0c7mzCkX/ddzOAXq+Sis/t4drffV/L+x7nF9sNBId+xFmXIRf49T3NrzawkX7T9sTH6ch6CBc5KNGlCS6voCl3UqTNEJ15i1dG/IAdk0ElmS3l8ecOUGJQUdIRVsbf5K0t55Wx1tHVt4/mslwKoZL0Mz+8vScg0HKKz/XYiI7dIFzfTp01/9raJN8/O3bX4MVRpBKdfZPxBQvxtB3HYRvVWfDcQ+yXcJRRpFOJR8eBD8bCS5H6FiotKnHXGG9XP8bn6oO89VqcVFpBZ7LtcJ+0c+JkF1V6H7NnXuNyTCtfPEKIh5oMhH5IecYGGRr2EAYSkZs7lHBxY2SQoeEF1jIK2dUxhoaHGBoe4uL4Xubcd1Bu0aGaaugtCzF3dZDRpTiKrYl9PesVXicWs0o87t/yvlxlab0yd8BqRNVbMHnHmY0qKPZK7KsjXPOlUWxlNGZUoB2rEbLWaurURSaGR7gRVDFWdXKoeTOHvvjQcQ4329GGpnNlAgrWlkOcrEvetv+krZXu4iTL1we5eH2etUiKeAENq+VrUcImO3X1xejr+nBYtSRjsxtBi72th+7a1D397WzODo4cd2DLBFmZflBbaffjKM6iCa8yUN2Cs0iHVp/Fqey94hRqLMGuBlmbu87Q8BCXJ5eJGytp6eyjKF9mtd6MCT3FLQ0ULY8zODqLL22hrPUAjdlc4BuvOsSJAy1UKH4Wrg1y1ZXF1lZFEUligcKDr0L21VViRqfGicxtjvs5ZTWhpCL4oxqgnmKjis6iJTDpIqxqKSk3E742yUpKh62sHgB/qxmLCiaHE73nKoOjs6ypRVR0HGJfdn027Cr2H+9jnz1LfPY6g6OzeCmloa+f1uzmjNkBmxEDaUyNnVQkFpgYHuLarJ9QqpDxJVP4YjrMpX04rCU0N5ViTcXw5Z+FVGkj+7pbqChwgu5AmRETYGn8OU6fPs1LLz7P0z0P9grWDTUlWIgR8Xg5XFOKWavHeofzdbXV4zSpqFojRWUZ+dIRQjz0pKfhIRXyLDDX1kgvKaL+GGC8pYQf74KfhKOODq1KPHQJ14L1HmLJSsx6UBJLjJ4ZzPUsTFdR91ItBn2upyNSb8UMJCPTrK9hm6sspYgGo4AJp8WIJrrA2OgkhpIOmvSruIZmOXOkjR5biriikLHaKdKpqOEZLuV7MRJJJ1XHHZhLHTAdINzQzzN1VjKuN/nJkC93iAt6il7owlHbAgu5HpRAS66ypk8vMfTqeo+Im8UbQAG5+Nb5ESbqTnHw0JM8D6ihaS4tH2D/iXqcJWb0qTVcl/eW1tH91Eu0FuVqKenwPGNnB5kIFPqItnPshS6qdDvXcpTUMhM/WsP2sbuVOc9YAecfaCnGBkRDk3iqn6SIDP6khjaTHoiQmNQX/Olim73I67PbA1qj42PYrEXUZVXGNAqNRUZ0ZAhNvcFPJ3LBmLa6jrJiLeZ8oNbbWYMdP7NnX8+3+qYpLu+n3hzf0/HcfV9QajKhSaxuVKoBbCYdSjLBgkYBKrGaVOILo1y+4eBYey0W3ywDMzN0t3RQkY4DYC6xYCBDdP4Cr1zOpXj5yp08W22ltDINq3qcx/totcbwnn+Zc95ckHJNY+NnuyuoaUlycyb3bB+3mADIes9tbIsFFzcLvINGx+eoObyP40/vAzXG2rUp0t2PcLK2Ars+TcJzg7ECb+kWI0SXp1ly+QiaKmltbqC05SiPRb/HG9PGAo/oMI+9VIt9l4q7JjTD37+mL6DMSEF7c1qMKCkPq/P7KN+vQYml8Cg2OvQqad/tSZ7ORR++ahNFvhtczvc2CSGEBA3iA6nGbsGghvHcNMAuDcC5FsEYwbV7mykp4SjCpFMJuy9vzPKTq5BnSOS76/0lJixEWPFs7iNXWYrhmzCALp/X7VvGoyh0G3VoIn7GNAqnzCaUpB+PBoLVBgzEWJscxK3kvqSNyynSClj0NiDAwWYn1rSXmYE12EgxCpBKgUa7+cUeKDFiIMbqlm3tTYT5cz/GV9NGk9NBaXktB45miK7McvPcdaYD2j0+XlY844MENHrMdW20V9bTvs/PxNszBb7fzdTlKO7d4r1snIAmjvGuZQqrFeauXxJ/IMapahNK2k/gZimlrTqUVJzgHgZB6+t6ONDegNOqY2tWmBJZr4BDtdmIkvKyNJbcCOpsRh1KKoVPyaWKOIo1ZLzzW9JElklmQUnG8e3heO62r/VehGwksGWwd3v+HvYT3ngGUkTXloFWTHqVWPAa0IfVCAn/MgBtJj2a+DIzw6sb+xrPZHgWPTpbFlb30+owwNrURsAAYA6lSaJBmw/MgdzA47h727b2wrQ0zJmfLtBYV0t1RSnl+/o5EFtjafptrkyt7WmQf/jy6/x0SxA4HTbwsWNOih2tMF1o6uMUY0Medns6lVQI0BRQprCg22oCJRZlTGPnMYNKdHkOX1svFpUd09uMy8O8+Y/D8kUjhJCgQXzw1VotaGKrLN6h4yCXZhHJpVncQ0ruisNMETHWVmKQ/+rOpUnECczlfj5gNaKkQ0SWdRv7aDPpUVLBfOUylyoUC00AvViNEA0s5SprJh3ZeAiPolBjt2BMBZmd0290hkTqDRhUiMfHgEOUWlRUXTmNn3iJxm1HqpINb1awTplzA6rXtmxrb8FSGyc6W3LjL0Je5scGmK09RE91J71VLTTfNobi7kHIqjuS+++CF8szz9Bkd9KenWayoArglvffqTJXQJlCHDLogRSpRR1Ugya8yhVtKyctKhq/v6DeCsilFD1+oA5bcg339WmWE7kxME0H6rFH/fmKaj12s2YjkMzZPoA4WG3FRobI2nXY6A+wolNAE/UXeA0L2xfYMRlVEivLG+9a7wWLx0aBotwzkA/YA+1mLGqEoEcP2DDp0yTDS0Aj5RYd6dAKN7ccX+7axknc0OPvzPXoULaP06f33XKsSfxpzS1By/Zt7amRYf9J2mrs2Ijgd89yYcZG9/5G6noqqWle5Ma5/ODge2BaSpNUwKTs5Ssn1xt6N4WUKeAI0etU0vEQUAb5NKW2uqJcQ4U3vvH5JoQQEjSIh0wLpWb1rrOylJpMaGLeOwYWd3LAaoRbgo5cbvdqLrdbs9OUkrlxEEo8yphGyacqxQgHdPkAYr1SdWBbq2y1+fa0Bl2FBQsx1lYM+QqZSmZ1ksuzt7cwqvG1jf/bTJv7vxdpo5609zoXXp9nTYGVzsf5fHmW1WuDuM1tdDcfot//I8677q0XI60Cyl7iuPc2Pcmi1QJxsmEFf9DLnH+E5X3PUgIE124WftQt1djVrSlF4G9tole7WQFfr6THfbuPiQnZjLk0n5RmS0W+nSKLSjy4l0rl3feVS83KkAgvbQQouXEQKcJB/cYzoEkE8Sm5XhljOk5kWYev04xFjRNc1bGe2redFafViCa+ikejECzO9egEb1zhRujWhzRLyre+gdy9v3nN9s6oRli6OMTrq3HAwYFneikO3WR0NkVJRzsdh7sYf3P8nradcOjRqZBK+vbwrvcyPUm/pZcrRMQVYcJVS1uXEU3czdK8XkYACiEkaJBL8LDKVXTuXIlYT7MI3fN0j7cHHbn52bdVyBUgk9rYh7+1HadZJb2cq0AEi40Y8oNK/R2blapc622SmN8DtGM3b//WzljbebSqCE1kjhsLelBCxFMKxZn4XaZ5XG+VDd3z1bXOX+fK+rkBUYsOfdTL2zfdQJRS5+NUViThHoKGeNVRnBYVTcC/h6DmvU1POhuLcxA9+sY0odEBhmjg2Wfs6NMrzF1JQYGLlNlMOlCTJCKafKWsipONdgwkieYr4LkxMRnigZmNSrqvLZ/+E8iN1zHF0qQxbUvXaTpQQzkZQlved9dwrYB9qUquwp7ZCFAcPFljR0dgY+xELigNMXtLip2lONdb5vPqiDTasNwSwGnaDlJvVYktTDKrUbCFEiQxkE1M41ow7VQt3n6MwXtfkHF69PKWn0owGpKEpoaYXjCyYq3i88129uXHmOzxaaGtrZwiNcji3Ooevnbey/Sk3GdHud4IjDM0CJq2UzjNub/F7b03VXQ/dYRWawLvpR9xfkF6IYQQEjSID6wUGRWKKp6kq9lNMKWS8rlYjmytMeYGa25Ns9ibXG9GNrQ16MjPz761Qq6CaqnkeGsNi/p6nm4uwwBE89MxnjKb0MT8LGpyYx3WK1XBDgMGksTcetZbgFXKaTjWRnDNSl1rPVVKgIXRATyKHphkOdRJVWUnTx8xMO2JkCmqxFlegS19g1fz4wM2UkkiV7lf00FaomlS1U4e7QkwqzRRbY4SWLl7RaK6/zkOmgN4FxdZDCtYK+uprbZjywaZHx8FCq0EvrfpSU5XkHBdNaWd/XQqYXQtTTRa0oRvXuDqHlY19kQStFrLqT3cRjBgwNnYRLVJA2wOXt5pQT9LcX5MTL5M+XyQQHsJZXWn6Iyuoa3voLFCC0RI7GEhwEL2pagAemw1h2lOpbC0NNFiVbeMncgFpVH/0kYQnY7kevzaTPqNwdK5sT6glLVwvDWJ29xEZ0MZ+vAMQ0N+UBRKb6wQbC+nsuM5HtHP4IooFJU5Ka80w9TLvJUfVHzrMb5zARJJA5WNx+lMRTlYa0Mb9hQQMNRz6OkuiiPu/CDocmrqaqmxQXRuhIsrD2p6Uv6zo7SJJ3piTGeqaW0pwxRfZHTQf9sYkUBLK/VFGsCMpTiNpC4JISRoEB9gI1ydKae/sZq23mogxtrQLMuRLYOB1wdr+j2A6R72kevNSMR2yO3eUiEfm1+mqr0SR/cRb60jngAAIABJREFUKpJ+5uZW0bcUkwzpNipV6+MWtlaq1scw+KMaAm3F2IjhnQ5hbujmSA1kk37mLl3g0vJmxXpq+Bolj3RSV91Jbw2gZkjHQ6xMujfK5AZUp4iG7t/tXzE+yKj9BD0tfRxUU0QXrjFaQC+DJplCLS2jur2SanLHmwm7mLh2gbFl/QN7dxmXLzI08yT9jbV0HAIlFWHtxiBvXk/vaTvLo1O4+zuoqe/mSF2G+OoUN5It7LNtDl4+bskNtL5tTEwyuFFGG7nE1Rl7/nhqyUYXmXCV0uWI7GkhwEL2VTJ1k7m6YtrKWugtTRFfnmRW10NLJsqkZn2Wr80UO6MBUqtzrKflpcO5sRpHbRY08UVuBOw0dB/BoWbIBKa4MjiCW1k/4HEujNk41eHA2XEAJ6BkUiRCHm5umVjg1mN855a5cHWW4oONdBxSyUa9zE5cLeArw4Jeq8da2UyHoxmAdMzP0sgwAzPhB/oTc2p4nIr+Dmpa+uhTM2TC81y9MMRNze03T8nUMt5WO1WpOcaumh/YxTCFEOJ+UhoaGlS5DEIIIYQQQojdyNAuIYQQQgghhAQNQgghhBBCCAkahBBCCCGEEBI0CCGEEEIIISRoEEIIIYQQQkjQIIQQQgghhJCgQQghhBBCCPEQkcXdxAeSrfcUR8rieM9c3NMKxO+Pwzz2Ui2G2b/l2+Hn+NluHb7vnOGCbmvMXs/hjx6i1nj7sima0AyvvDbC5tJY+zl5uoki1+v8eCjwrhzxXN/T/GrD9tWylWQQz+Q53p5Kvi9Xsfvpl2jPTvP3r8U59kIXxe7/l1cuF8nDIIQQQkjQIMTOKktLKTEuMf3QrMRaidWkklmd5PJsaNsranyNrWvpZqxLTA2vkPX5eLc6C49bTEAEz9AYLkUha6qivb0WZ+dReibPfgACNSGEEEJI0CA+5BwUGzUo8RCzmoej8hpoMWNRIRG+iGvhzq3n2oiXpQi8m9mFpSYdSjKCb96FS6MALnQOJwfL9VhVFZCgQQghhJCgQYj7roVjz/fi8I9yLdNIh7MIgwJKepW5H5zlklYBrDh7++ipq8CqV0FNEZke4NWrqwBE6vt56WAlFgBUMuYOTp/uACDrHeGH52cABwef7acpMc533xi/Zd9X8mUKO57E4Y/wWUeQiSmoaXVg1YEmvszY2XOMR+9vhT1gM2IgSTSo37XM9vOPsPLWy5xb3V5+ed/j/GJ7yW0PtiYyzyuvXiJcUJl2rCbQRKNMbgnK9FoNqBmSirJlXwaCQz/irMsArKc1gfcnP+F8XAv0cOKFVip0t6ZdRfZYRgghhBASNIgPATsmg0rS1kp3Nor7+iBLioPWGj3xfL20+NBxDteZSK9NMzEbQtPcRVvLIU4GfsRbCwZMaze5OjwP1ib6OspIzw0wtpqrUKbD8+Ra3p1YzCrxgP+2fafic3s6ni6rEVVXTnN9gKWJQSbNHXQ3O2juqWZ8wLOHcx/ije8NAUXYOcvLNwHd9qDjlDWXDpSY1O/6VK6fv635AF3WCD6v7rbOhlLPOFfCmxtQy9rpa7SQ8Xk3UpzuXsaGSa+Sivs2rlXN/gO02xVS7ul8gAddJWZ0aoTInB60m+ehpFbxRzX5Y3NxY8TP+pVXNeU09zRhT67h3VMZuPbq97iWLzPwD5OAjGcQQgghJGgQD5X19Bt9eomhV6/gVhTAzeINQKMQbujnmTorGdeb/GQoX1ld0FP0QheO2hZYWNhIy3H1tnOMCMGFeVwbLe25mmWk3ooZSEamId8m7281Y1FTRINRwFTQ8WykQGXWWHjrTUZiGsBKVX0XDq35vl8fm0kHFOP85Mc5veX30Zlv8cpIbkBy7vytODr1aGJRxnZIzdL7PLjyl0/b/AiP19nQeEd4Y9hVcJnc9QKN4xCnTx/K1+RjBG8OM3htczulJhOaxCo+Zft5KMkECxvH5se7kAvgMtYWjhyvpzzrYfzcEDc1mj2UEUIIIYQEDeLhDxpKjBiIsTo5iFsx3Pb6wWYn1rSXmYE12BhkGyCVAo12e/kDViNKOkRkWbfRwr3OX2LCQoQVz2bajrnEgoEYvgnDxh1/t+OBSsx6yPjc+YABNlrgk777fHXasRpz6UEXJ7xbfp8l5bs1QGnCaoB4cPmOW4xXHeKjXU6ssRmGzk0TVpSCy+SuV5LQxBUmIxpUfTHVzS3UNrXSuTLN4LIeqKfYqJKNBLaMK8mdR9rn3zZwO6eK/ce7aDCFcV18k/HoTmlYhZQRQgghhAQN4qF1ypxLW1mb0+8wfredUouKqiun8RMv0bjtNZVsOLvtN06LESXhYWqHGXx2CijaTHqUVJDglpb5Ox8PROptWHQqseA11nsscr0TKaJ+D+s9FvdDxmqnSKeSWFnEtXBr2pNmh+NKEw/MAOZdttfOYwfrKY4vMPb2ZdyKZk9l2kx6UIP4r7lxaXODoKcjxTx/3EF5XQUsBwA7JqNKYmX5tvOIx0bZnjpkpf7kYdpMMZavnssHHbcqpIwQQgghJGgQDzWbSYcS3zmlZr0Ff6fpRiE35eimllxrtn+n1ux8QJH04tmoAzsot9y+7zsfz3qPRYy1wOYjkuudSBJw398KbbDagIHtKVW7WS2zYCGOd86wa8Bw7GQH1aqH8fMXuRHV7LGMlVKzDk0ivi3tSBfJBW4arQkIEGgpxkaGRHhpI3hZrTdjIkV422BuKw3HH6WnPIvv6pucn03uGDDcvYwQQgghJGgQD7n1tJXQLq+HiKcUijNxXAuuu2wrN4D59tbsPAXIpPDkU238re04zSrpZd8ejmezxyK0dZCv+dZBvvdHjT2XPhUO3P1xvH2g8VZV7D/eQZ3+bilAdyqTS39Swtuns7V32ikiQ8g/A5hRFYAsmZRmIzh7ssaOjsC2wdzFh47T49CSnDvPG7ssCldIGSGEEEJI0CAechtpK5GrgHWHEpMshzqpquzk6SMGpj0RMkWVOMsrsKVv8OrbM7e9w1z2KJ11XsJkSflcLEfylVcVVEslx1trWNTX83RzGQYgGh3f2Pfdj2enHotcC/ydeifuVbXZCKp/2yxEu4lmMqh6O9V97YR8MZRUiAVPEID6E4dptcTwjk+xZGiiti7/kKcizHr8BZVJOIow6VRSKZXaulrASkltLfUOE2p4hokJEyigqAB6bDWHaU6lsLQ00WJVUZJxfJr1gO0Uz9VZSXuuMblqzm8PUJIk5rysKIWVEUIIIYQEDeJDIJd+kyIa2v12mxq+RskjndRVd9JbA6gZ0vEQK5PuW0qOM+spo7eyno5D9eTWK5jbCBrG5pepaq/E0X2EiqSfublV9C3FJLfs++7Hk0uByoZCGz0WUIPRAOm1+z0IOjdLkyYWZbGA3ovl0Snc/R3UNHVxuAm0/ol80NBOlV0HipWKfQep2BpozHyLWY+1oDKBMiMmQFPZyeHKfP09kyK8PMn1kWsbYx9Kpm4yV1dMW1kLvaUp4suTzOp6aMlsru2w31mCAcDZTZ9zc1/a4AzfnfcWXEYIIYQQ7z+loaFBlcsghBBCCCGE2I1Mgi6EEEIIIYSQoEEIIYQQQgghQYMQQgghhBBCggYhhBBCCCGEBA1CCCGEEEIICRqEEEIIIYQQEjQIIYQQQgghHiKyuNuHmKv3SX652bbxc8L1Oj8eCuxYNlLfz0sHy8iMf5vXJsy7bNFKw/ETdFWaMSiQW3jtZc6t6h+4cy/sfD54Vjof4XNNFZj0WrQKoGaIr05x9a3ruJUHeXnlKjpO9tJWZkargJL0MzdygUvuhDyoQgghhAQN4v3kcF1nyK8jXdLKwRYLMb8HMO1Y1hCeZmz4JrF5Myi7VViP8ILDQMZ9jSFPHEgSW9HvWv79tFpmwUKcldX3/xEo2f8k/Y02DEqGxNI13hqYIXyP2zpcbEUNenB5F1mJF1Ha1ERzRTu9hxdxDwce0DvRStsTR+gsThOeuc5YrIT29loau3vwLQwyq1HkYRVCCCEkaBDvF73Pg8sHc5WdPEIM34Rh1ztiveydAoBD5UXoU6tMD9zAtV7Re0Dre8ctJpTUKj6v7n1N0ks4jnK40UR8+jLXlDo6G7o52n6d1ybvrfdjbuAMc1t+di0YKT7dRKmxFHgwg4aVziO8UKwhMT/AmZE1AJLlFZx02Km2ZJmNa+VhFUIIISRoEO+GjLWOrr59NJflUoWUpJ/54TMML9/+Jz9lNqEkV/Ht0KK7NYVJSa8y84OzXNFuLdfDiRdaqdCpAKg4aP/4S7QD2eVhfvj2QsHHXH/yRQ6b3Ays2NnfYMOggBqaYejMlXxqjYODz/bTlBjnu2+M59/VwrHne3H4r/DD8zO4ep/kS3UZPPFiHDYNqn+JRYODGosGNTTDwJkreBSFUrMOJZnB8MyLnC7SgZoh4bm9ld/ScpSj7Q5KDNpdy3Q/9RLt6hzn1oo5UFuCWQeoEbzD/8h5l+GO5+ypLqY4vszA6CxuZQ5T2cdoLW4AvPfpPjBhBDKZ2AN7r/ZXlaJPe3ENaul+9qOUz3yfv0mmOIkefXUaprcHDcWHnuZUnRXVPcQ/DrrkYRdCCCHeAzIQ+qFUxf7jfeyzZ4nPXmdwdBYvpTT09dOaVW8p66DcokMT9TO5Q9DgcF1naHiI+YiCkogypb21jIsbI4MMDS+wllHIro4xNDzE0PAQF8fn9nDMueNQTTX0loWYuzrI6FIcxdbEvp71Cq8Ti1klHvdveZ8dk0ElFc/t64DViKq3YPKOMxtVUOyV2FdHuOZLo9jKaMyoQDtWI2St1dSpi0wMj3AjqGKs6uRQ82YOvabtFI/1VFOUWOLG6CCjnhTaqm4e6d4aeLVgNUJSX8nRGoXg1BUGR2+wEE6SWbt7C3n5WpSwyU5dfTH6uj4cVi3J2Gz+VSv2th66a1P3dBfYnB0cOe7AlgmyMv2gVq734yjOogmvMlDdgrNIh1afxansdu1a6HQWoQNMliJ51IUQQoj3iPQ0PIScx/totcbwnn+Zc97cIORrGhs/211BTUuSmzPGraWxmFWia0s7biuXltROzX5Ir63skGvvx7vgJ+Goo0OrEg9dwrVgvYeYtBKzHpTEEqNnBnM9C9NV1L1Ui0GfBSBSb8UMJCPTgCW391YzFjVFNBgFTDgtRjTRBcZGJzGUdNCkX8U1NMuZI2302FLEFYWM1U6RTkUNz3Ap34uRSDqpOu7AXOqA6QAZay+nOsoxrF3nzNnJ3HlPBzA//QwdlV3AyLagRZ8IMv76OcajuXN2TwPcPWiwzo8wUXeKg4ee5HlADU1zafkA+0/U4ywxo0+t4bq8txyv7qdeorUoFxymw/OMnR1kIlDoo97OsRe6qNKpO76qpJaZ+NF5Io9+jIPlu51fEv/o93hj2njXvQVairEB0dAknuonKSKDP6mhzaQHIiQm9bd8Sk2x5G+n0h7HPT4K6OWBF0IIISRoEHu3n1aHAdamNgIGAHMoTRIN2nwFfHulLUX0DoOgE44yinQqsdDERmX9tspfmRETMYJr91aJSziKMOlUwu7LG7P8BFrMWNQMiViucuovMWEhwopny3mVWDBsjMfItfqnfct4FIVuow5NxM+YRsmnYPnxaCBYbcBAjLXJQdxKLn3IuJwirYBFbwMCOHprKdOGWRm7RnijYhohnsqiGrRUqLCirActEF4Y3AgY9ibC/Lkf46tpo8npoLS8lgNHM0RXZrl57jrTAe0eH1MrnvFBAho95ro22ivrad/nZ+LtmQLf72bqchT3bqeSjRPQKKQmLjFk2i2YyZLyFXYfBEqMGEjiD8Q4VW1CSfsJ3CyltFWHkooT3KH3a/78y8znQlp53IUQQggJGsS98LfmWm4p28fp0/tueTWJP729Nmiyb61077zNFYeZolsq67fqKjGjUyNE5vSFNLDvso8YaysxIFeRD9iMGIgTmMv9fMBqREmHiCzrNvbRZtKjpIL5ymWu1T8X3PRiNUI0kOtBsZl0ZOMhPIpCjd2CMRVkdk6/0RkSqTdgUCEeHwOKcFqNgIGKk5/i9K0HG8qwkq/LBouNGIgQuJngXk484WjjRGdLbvxFyMv82ACztYfoqe6kt6qF5ukBXr26uqcgZNUdyf13wYvlmWdosjtpz07vmH52x/ff8Q/m5s4JT4UFUIcMeiBFalEH1aAJr3JF28pJi4rGnwv4hBBCCCFBg7jPcpXYJMEbV7gRurXidnsLcJfViJIM7jgIet1Rm+WuMw2VmkxoYl4W73GUzAGrEW4JOk5ZczMc+aMa0IDTYkRJevFs7CM3DkKJRxnTKPlW/xjhgC4fQKRJhpeAA1iNkPAvA1Btvj1tRldhwUKMtRUD62MeNBEXFyc8t5VVUqGN/58ybz/GvUob9aS917nw+jxrCqx0Ps7ny7OsXhvEbW6ju/kQ/f4f3XVA9W4BQFoFlL2EM+9tepJFqwXiZMMK/qCXOf8Iy/uepQQIrt2UB1oIIYSQoEG8G2yhBEkMZBPTuBZ2SjfaWrO1UmTQoCSid2yFLjVvVsx3Vk+xUSUbybXk34vbgw7r7ftVgExqYx/+1nacZpX0sm8zYFLjROb0+DvMWNQ4wVVdfgxDMr8ORTt28/bafcbazqNVRWgic9xY0IPiJpHsArIEFlx3WDPBWsC1uTPr/HWurJ8bELXo0Ee9vH3TDUQpdT5OZUUS7iFoiFcdxWlR0QT20mL/3qYnnY3FOYgefWOa0OgAQzTw7DN29OkV5q6k4JaB95q2Uzy1rwyLf4Izb47f83oWQgghhJCg4UOt9MYKwfZyKjue4xH9DK6IQlGZk/JKM0y9zFs7tP6qlkqOt9awkFBQ42u4V7ZPz5nMKGRtlZzobGQukt6hTCVWk0piZfkej7qFUrNKNrQ16KjBaIC0L7TlQDePdVFfz9PNZRiAaHQcsHLKbEIT87OoyY11MKaC+Lw6gh0GDCSJufWAHZNRRaWchmNtBNes1LXWU6UEWBgdwKPkBuDe8MdorKnh1KkMM7NrBE3l1FSWU6Fd4eybI/nKav4Y13z37e9niaZJVTt5tCfArNJEtTlKYOXuAUN1/3McNAfwLi6yGFawVtZTW23Hlg0yv6cBw+9tepLTFSRcV01pZz+dShhdSxONljThmxe4qr09KNlXX45FUdGYbZRnVcKSviSEEEJI0CDuxTgXxmyc6nDg7DiAE1AyKRIhDzdvG5MQYXR2mYo2B47uIziAxPwPca9sLzU6PkNVXyMVHQeoAFJLF7YFDbkBy3ceTH1nubEIidhm0LE+w1E8chXIzcY0Nr9MVXslju4jVCT9zM2tom8pJhnSsd7qvz5uoc2kR0kmWNBsjmHwRzUE2oqxEcM7HcLc0M2RGsgm/cxdusCl5c3rEx0cYdzYS3NZEx1lTaBmyKYirM65N1q3N44xH7TcDxXjg4zaT9DT0sdBNUV04RqjBfQyaJIp1NIyqtsrqQZQM2TCLiauXWBs+cEdMGxcvsjQzJP0N9bScQiUVIS1G4O8eT29Y/m5tSANJj2Rm1dkpWghhBDiPaQ0NDSochmEEEIIIYQQu5HF3YQQQgghhBASNAghhBBCCCEkaBBCCCGEEEJI0CCEEEIIIYSQoEEIIYQQQgghQYMQQgghhBBCggYhhBBCCCHEQ0QWdxMfSLbeUxwpi+M9c3HHlYMfLId57KVaDLN/y7fDz/Gz3Tp83znDBd3WmL2ewx89RK3x9mVTNKEZXnltZGNROdjPydNNFLle58dDgffxmIUQQgghQYMQD7DK0lJKjEtMPzSLAldiNalkVie5PBva9ooaX9sSMEDGusTU8ApZnw/pLBRCCCGEBA1C7MhBsVGDEg8xq3k4ooZAixmLConwRVwLRXcsq414WYogAYMQQgghJGgQD5sWjj3fi8M/yrVMIx3OIgwKKOlV5n5wlktaBbDi7O2jp64Cq14FNUVkeoBXr64CEKnv56WDlVgAUMmYOzh9ugOArHeEH56fARwcfLafpsQ4331j/JZ9X8mXKex4Eoc/wmcdQSamoKbVgVUHmvgyY2fPMR69vxX2gM2IgSTRoH7XMtvPP8LKWy9zbnV7+eV9j/OL7SW3PdiayDyvvHqJcIFlhBBCCCEkaBDvAzsmg0rS1kp3Nor7+iBLioPWGj3xfGdB8aHjHK4zkV6bZmI2hKa5i7aWQ5wM/Ii3FgyY1m5ydXgerE30dZSRnhtgbFULQDo8T67l3YnFrBIP+G/bdyo+t6fj6bIaUXXlNNcHWJoYZNLcQXezg+aeasYHPHs49yHe+N4QUISds7x8E7hlbMApqwmIkJjU7/pUrp+/rfkAXdYIPq/uts6GUs84V8KbG1DL2ulrtJDxeTeCgULKFHLMQgghhJCgQYj7aj39Rp9eYujVK7gVBXCzeAPQKIQb+nmmzkrG9SY/GfLl3rSgp+iFLhy1LbCwsJGW4+pt5xgRggvzuDZa2nMV2ki9FTOQjExDvk3e32rGoqaIBqOAqaDj2UiByqyx8NabjMQ0gJWq+i4cWvN9vz42kw4oxvnJj3N6y++jM9/ilRErsJ6WZMXRqUcTizK2Q2qW3ufBlb982uZHeLzOhsY7whvDrj2VEUIIIYSQoEG890FDiREDMVYnB3ErhtteP9jsxJr2MjOwBhuzIQVIpUCj3V7+gNWIkg4RWdaBdvt2/CUmLERY8Wym7ZhLLBiI4ZswbNzxdzseqMSsh4zPnQ8YAGyY9CqppO8+X512rMZcetDFCe+W32dJ+W4NUJqwGiAeXL7jFuNVh/holxNrbIahc9OEFeWeygghhBBCSNAg3jOnzCaU1Cprc/odxu+2U2pRUXXlNH7iJRq3vaaSDWe3/cZpMaIkPEztMNXqTgFFm0mPkgoS3NIyf+fjgUi9DYtOJRa8xnqPRa53IkXU72G9x+J+yFjtFOlUEiuLuBZuTXvS7HBcaeKBGcC8y/baeexgPcXxBcbevoxb0dxTGSGEEEIICRrEe8pm0qHEd06pWW/B32m6UchNObqpBasR0n7/jgN2nRYjStKLZ6MO7KDccvu+73w86z0WMdYCm49IrnciScCtv6/XJlhtwMD2lKrdrJZZsBDHO2fYNWA4drKDatXD+PmL3Ihq7qmMEEIIIYQEDeI9lku/SftCu7weIp5SKM7EcS3cLa8+N4A5HhsFdpiaVAEyKTz5VBt/aztOs0p62beH49nssQjN6Td6LNZ7J/xRzX2d7bTGnkufCgfu/jiest7pGKrYf7yDOn0Y18U3GY/uFNwUUkYIIYQQQoIG8R5bT7+JR64C1h1KTLIc6qSqspOnjxiY9kTIFFXiLK/Alr7Bq2/P3PYOc9mjdNZ5CZMl5XOxHMnXoFVQLZUcb61hUV/P081lGIBodHxj33c/np16LKyUmu/cO3Gvqs1GUP1EtgQou4lmMqh6O9V97YR8MZRUiAVPEID6E4dptcTwjk+xZGiiti7/kKcizHr8BZcRQgghhJCgQbzncuk3KaKh3W+3qeFrlDzSSV11J701gJohHQ+xMum+peQ4s54yeivr6ThUT269grmNoGFsfpmq9koc3UeoSPqZm1tF31JMcsu+7348uRSobCi00WMBNRgNkF6734Ogc7M0aWJRFgvovVgencLd30FNUxeHm0Drn8gHDe1U2XWgWKnYd5CKrYHGzLeY9VgLLCOEEEIIcTuloaFBlcsghBBCCCGE2I2MgBRCCCGEEEJI0CCEEEIIIYSQoEEIIYQQQgghQYMQQgghhBBCggYhhBBCCCGEBA1CCCGEEEIICRqEEEIIIYQQDxFZ3O1DzNX7JL/cbNv4OeF6nR8PBXYsG6nv56WDZWTGv81rE+Zdtmil4fgJuirNGBTILbz2MudW9Q/cuRd2Ph88Gesxnn26iqJbfp/1jvDD8zMP8JFX0XGyl7YyM1oFlKSfuZELXHIn5EEVQgghJGgQ7yeH6zpDfh3pklYOtliI+T2AaceyhvA0Y8M3ic2bQdl5eyudR3jBYSDjvsaQJw4kia3ody3/flots2Ahzsrq+/8IlOx/kv5GGwYlQ2LpGm8NzBC+x22tr3YdmrjMZGSzIzEdnufB7Vi00vbEETqL04RnrjMWK6G9vZbG7h58C4PMahR5WIUQQggJGsT7Re/z4PLBXGUnjxDDN2HY9Y5YL3unAOBQeRH61CrTAzdwrVf0HtD63nGLCSW1is+re1/r0gnHUQ43mohPX+aaUkdnQzdH26/z2uS99X5Yii0YiOG76sKl23piD24m4krnEV4o1pCYH+DMyBoAyfIKTjrsVFuyzMa18rAKIYQQEjSId0PGWkdX3z6ay3KpQkrSz/zwGYaXb/+TnzKbUJKr+HZo0d2awqSkV5n5wVmuaLeW6+HEC61U6FQAVBy0f/wl2oHs8jA/fHuh4GOuP/kih01uBlbs7G+wYVBADc0wdOYKbkUBHBx8tp+mxDjffWM8/64Wjj3fi8N/hR+en8HV+yRfqsvgiRfjsGlQ/UssGhzUWDSooRkGzvz/7d3XcxVZgufxb15v5M2Vl5BHQhgBVVBQXVumZ7prZmA7JmKin3Yndp82Yv+X/S/WvMzuxOx0R9d0DDXbZagqkARIgBzyV+jKXO9d7sO9yAOCoCn3+zyhm+dmnsy8SZxfnnMyHxAwDGrdNoxsAccnf8WNChuYBTKBo3f5PT2Xudzvo9phfW6Z4Y9u0m+ucDtYxbm2atw2wEywNfEHvvE7XrjPgZYqqtKb3JlaZt1YwVX31/RWdQJbr3Xeh7xOjGz02HP5Q3W1uRZ7fgv/mJXhX/4l9Uv/l/+ezXENO/aWPCweDA1Vox9zvd2LuT7OH8b8uthFRETeAk2E/klq5uyV85yuKZJefszY1DJb1NJ5/iq9RfNQWR/1HhuWZJi5YxqaPv9jxifGWU0YGJkkC9bDZfzMT44xPrFGsGBQ3JlmfGKc8Ylx7s6svEKdS/UwXa2M1MVYeTjG1EYao/K0p//AAAAcSUlEQVQUp8+kymWa8LhN0unwvu/V4HKY5NKlbZ3zOjHtHlxbMywnDYyaRmp2JnkUymNU1tFVMIF+vE4oeltoN58yOzHJfNTE2TzIaPfeGHpL33V+caaFiswG81NjTAVyWJuHeXd4f/DqweuErL2Ry60G0YUHjE3NsxbPUgi+/A55fTBJ3FVDe0cV9vbz+LxWsqnl8lIvNX1nGG7LnfgYVjktmHYfp//9TW7cuMGnn1xm0FP8Af9Wz+KrKmKJ73CnpYemChtWe5Em43nHrofBpgpsgMtToUtdRETkLVFPw09Q05Xz9HpTbH3zGbe3SpOQH1kq+e1wA609WZ4sOfeXxuM2SQY3jl1XaVhSP61nIR/cPmasfZittTAZXzsDVpN07B7+Ne9rZNJG3HYwMhtMfT5W6llYbKb9ZhsOe6nRm+jw4gayiUXAU9p6rxuPmSMZTQIumjxOLMk1pqfmcFQPcMq+g398mc8v9XGmMkfaMCh4a6iwmZjxJe6VezEy2Saar/hw1/pgMULBO8L1gXocwcd8/tVcab8XI7g//oSBxiFg8kBosWeizPzpNjPJ0j6vLwK8PDR4VyeZbb/OhdEP+TVgxha5t3mOs+910FTtxp4L4r9/0l6DWiyZLZ6urfM0buBu76O/sYX+d88TLvewvFw/73w6RLPNPHapkdtk9vffkHj/r7lQ/7z9yxKe+ie+WHS+dGuRnioqgWRsjkDLh1RQIJy10OeyAwkyc/ZD/0stsBHup7EmzfrMFGDXBS8iIqLQIK/uLL0+BwQXdgMDgDuWJ4sFq714TKMtR/IFk6AzvjoqbCap2OxuY/1I46/OiYsU0eDrNeIyvgpcNpP4+v3yUCSI9LjxmAUyqVLjNFztwkOC7cC+/aouj+GfdYCtdNc/H9okYBgMO21YEmGmLUZ5CFaYgOXZZOEUwbkx1o3S8CHnZo68AR57JRDBN9JGnTXO9vQj4rsN0wTpXBHTYaXBhG3jWWiB+NrYbmB4NQlWb/8LodY+TjX5qK1v49zlAsntZZ7cfsxixPoKl+kM41/s+3NtC+ODDzldXephCdhOEhrWWbifZP15u1JME7EY5GbvMe563vqK5EIn+x1Eqp04yBKOpLje4sLIh4k8qaW214aRSxM9pvdr9ZvPWC1FWl3uIiIiCg3yOsK9pTu31J3mxo3Th5ZmCecPtgZdNfsb3cevc9vnpuJQY/2woWo3NjNBYsV+khvsz9lGiuB2Cig15COVThykiayU/j7ndWLkYyQ2bbvb6HPZMXLRcuOydNe/FG5G8DohGSn1oFS6bBTTMQKGQWuNB2cuyvKKfbczJNHhwGFCOj0NVNDkdQIOGq79LTcOVzZWYLvclo1WOXGQIPIkw+vseMbXx3uDPaX5F7EtVqfvsNw2ypmWQUaae+hevMOthzuv+WtIkM6br/ydnfXECU7YOi+eTXCyADXqsAM5ck9t0AKW+A4PrL1c85hYwqXAJyIiIgoN8oaVGrFZovMPmI8dbrgdvQN8komzlys9L33SUK3LhSW1xdPXnCVzzuuEQ6Hjurf0hKNw0gIWaPI4MbJbBHa3UZoHYaSTTFuM8l3/FPGIrRwg8mTjG8A5vE7IhDcBaHEfHTZja/DgIUVw28GzOQ+WhJ+7s4EjZY1cbPff190H6/iq8k47+a3HfPenVYIGbA9+wH+sL7LzaIx1dx/D3aNcDf/+pROqn8dutWDkS8OyTubtDk/yWK1AmmLcIBzdYiU8yebpX1INRINPdEGLiIgoNMifQ2UsQxYHxcwi/rXjhhvtb9l6qXBYMDLJYydB7wYC917D/HgdVDlNionYCcfNnyR0eI9u1wAKud1thHv7aXKb5DdDe4HJTJNYsRMecOMx00R3bOU5DNnyeyj6qXEfbN0XvP2831yBJbHC/JodjHUy2SGgSGTN/4J3JnhPcGxezLv6mAfP9g1IemzYk1t8+2QdSFLb9AGNDVl4jdCQbr5MV7VBYXv90BOvXuTtDk/6KpXmAnbsXXliU3cYp5NfflKDPb/NyoMcHKq3pe86H52uwxOe5fMvZ177fRYiIiKi0PCzVju/TbS/nsaBX/GufQl/wqCiron6RjcsfMbXx9z9NT2NXOltZS1jYKaDrG+nDizPFgyKlY28N9jFSiJ/TJlGvC6TzPbma9a6h1q3STG2P3S04nRAPhTbV9G9uj61d/Bxdx0OIJmcAbxcd7uwpMI8tZTmOjhzUUJbNqIDDhxkSa3bgRpcThOTejrf6SMa9NLe20GzEWFt6g4BozQBdz6coqu1levXCywtB4m66mltrKfBus1XX06WG6vlOgZDb+z8eZJ5ci1NvH8mwrJxihZ3ksj2ywODf+QD/lNjluDTpzyNG3gbO+hsqcGb2WT6wQIn7wZ5u8OTmvxR4u0t1A5eZdCIY+s5RZcnT/zJdzw8Juic7qjHY5hY3JXUF03iGr4kIiKi0CCvY4bvpiu5PuCjaeAcTYBRyJGJBXhyZE5CgqnlTRr6fPiGL+EDMqu/Y337YKmpmSWaz3fRMHCOBiC38d2B0FCasPziydQvVpqLkEnthY5nTzhKJx4CpacxTa9u0tzfiG/4Eg3ZMCsrO9h7qsjGbDy76/9s3kKfy46RzbBm2ZvDEE5aiPRVUUmKrcUY7s5hLrVCMRtm5d533NvcOz7JsUlmnCN0151ioO4UmAWKuQQ7K+u7d7d361gOLW9Cw8wYUzXvcabnPBfMHMm1R0ydoJfhrN2GxV1NS38jLeVzHt+ZY2LyESvJH+6TlZ2bdxlf+pCrXW0MjIKRSxCcH+PLx/ljy68Eo3S67CSePNCbokVERN4io7Oz09RhEBERERGR59HL3URERERERKFBREREREQUGkRERERERKFBREREREQUGkRERERERKFBREREREQUGkRERERE5CdEL3eTH6XKketcqkuz9fndY98c/MNykV/cbMOx/D/5h/iv+O2wjdD/+ZzvbHuZfeX8x/zXzoMviDOyUQJzt/l2IfuDrLOIiIj8fKgFID9KjbW1VDsN4j+RlwJf8biABIHxMcYnxrn7eJ2wpZqmwcucKej9iyIiIvL9Uk+D/Aj5qHJaMNIxli0/jdRQ67JhZBOEVv34LQbgx+Zr4kK9Ha9pAoZOu4iIiCg0yE9dD+/8egRfeIpHhS4GmipwGGDkd1j556+4ZzUAL00j5znT3oDXboKZI7F4h1sPdwBIdFzl5oVGPACYFNwD3LgxAEBxa5LffbME+Ljwy6ucyszwj1/MHNr2g3KZk9Unc/Ev+DtflNkFaO314bWBJb3J9Fe3mUm+yU66frwusCSTzO0LQXarBcwCWaP0Wc8v/oazrg3ufXZnNywNf3STfmOFf711jziwefoD/r6/+siFbUmsvlIZEREREYUG+R7U4HKYZCt7GS4mWX88xobho7fVTrrcTq4avcLFdhf54CKzyzEs3UP09YxyLfJ7vl5z4Ao+4eHEKnhPcX6gjvzKHaZ3rADk46uURts14XGbpCPhI9vOpVdeqT5DXiemrZ7ujggbs2PMuQcY7vbRfaaFmTuBV9j3cb74p3Ggghq+4rMnwIG5AZW47Ca5dGi3bq1nz9FfY5BbXywHqg5q3BaM1P7elVLYyIfCuw392sAMD+J7l7VZ18/5Lg+F0NYrlXl5nUVEREShQeQNi/S48Zhgz28wfusB64YBrPN0HrAYxDuv8km7l4L/S/44Xm48r9mp+HQIX1sPrK1hTWyxkQD/SD/vkCC6top/x17eQqlBm+jw4gayiUUo90mEe914zBzJaBJwnag+u0OgCkHWvv6SyZQF8NLcMYTP6n6jx6ZUP7D4RrlxY7Tckk8RfTLB2CP/XshxmqRD4WPCxl4YsocC+MuHz9r9Lh+0V2LZmuSLCf8rlRERERHZT7cO5e2EhmonDlIE58bKDfSDLnQ34c3vsHEnuP9b5HJgsToOlD3ndWLk0yQ2j2becLULDwlSAfvuZ+5qDw5SZGYdJ64PNOK2QyG0Xg4M+xrp2dAbPTal+mWJzd5lfGKcsal51pNOqk/1MujL7QtDBdKRpd3vhfpKYSgVSR1ZZ7p5lOtDTXhTS0zcXjx2yNFJyoiIiIiAehrkLbnudmHkdgiu2I+Jqv3UekxMWz1dv7lJ14FlJsV48cAnTR4nRibAwjGPWi0FilgpUJRGLtHnsmPkokT3zRd4cX0g0VGJx2aSij7iWY9FqXciRzIc4FmPxZvQ57KDGSX8aB2/tTQJejFRxa+v+Khvb4DNSDkMpdne2btkPVWlMBSasx+4kgvefn5xoYOq9BrT395n3Ti6gycpIyIiIqLQIG9VpcuGkU4yfezTjkp38As7c9xfjh1Zaqb39z704HVCPhw+9s54k8eJkd0isNsG9lHvObrtF9fnWY9FimBk7xIp9U5kiazb3+CR8VLrtmHJpAntq4otUQpKFqsLiHC50oORDx8IQ0Ne55EwVPD28861AVrMADPf3GU+eXxgeFkZEREREYUGecv6Sw39UOw5y2OkcwZVhTT+tZeNqy9NYE6npoCKo4sNoJAjUB5yFO7tp8ltkt8MvUJ99nosYiv23Ub6s96JcNLyBgf2ncLrACN+8PGxNYM1VFAgFl4C3NgMyk9SKi3P+EZpqzawxPYHn2bOXhmg3R7Hf/dLZpLHhZuTlBERERFRaJC3rOCtocJmkk48BLzHlJhjMzZIc+MgH19ysBhIUKhopKm+gcr8PLe+XTryDXfd+wy2bxGnSC7kZzNRbsWbYHoaudLbylN7Bx931+EAksmZ3W2/vD7H9ViUegRe1DvxOjK+Clw2k1zOpK29DfBS3dZGh8+FGV9idtYFBuRNMO01NJ3tIpKpo7e7gxpj/xOXoOO9i/R6UmzNLLDhOEVbe/kizyVYDoRPXEZEREREoUHeumiLAwc5krHn/9wWJh5R/e4g7S2DjLQCZoF8Osb23PqhkjMsB+oYaexgYLQDSLD99cpuaJhe3aS5vxHf8CUasmFWVnaw91SR3bftl9enNASqGIvt9lhAK04H5INvdhJ0pM6JC7A0DnKxsfSZUcgR35zj8eSj3bkGi4t+equ6qO05zzu5BFtP/ISHWnHshqF+mmtsYHhpOH2Bhn3bSC79L5YDJy0jIiIicpTR2dlp6jCIiIiIiMjzaAakiIiIiIgoNIiIiIiIiEKDiIiIiIgoNIiIiIiIiEKDiIiIiIgoNIiIiIiIiEKDiIiIiIj8hOjlbj9j/pEP+S/dlbt/Z/x/4l/GIzowIiIiIqLQICU+/2PGwzby1b1c6PGQCgcAlw6MiIiIiByg4Uk/Y/ZQAP+anzsOGw5SZGYdOigiIiIicoR6Gn6iCt52hs6fprvOjcMAIxtmdeJzJjaPnvLrbhdGdoeQxThmTTW0XTzPkK8at90EoJgNszF1izG/vVzGS9PIec60N+C1m2DmSCze4dbDnWPq1c9714ZotodY/vzfuJ+y6mSJiIiI/MCpp+EnqZmzV85zuqZIevkxY1PLbFFL5/mr9BbNQ2V91HtsWJJh5o4JDRWX3+Fim4tiaIHZiXHuz60TyluxpffKVo1e4WJ3DdbYIrMTk8xHDLw9o1xrzx5Zn7+vgyaXiWl1UlFX0KkSERER+RFQT8NPUNOV8/R6U2x98xm3t0q9AY8slfx2uIHWnixPlpz7S+NxmySDG8euq7PKjSW2yK1vp541+1mZ3vvpxDuv8km7l4L/S/44HioVWbNT8ekQvrYeWFs7WLenIUItLipC89z3aziUiIiIiEKDfA/O0utzQHBhNzAAuGN5sliw2osHSkd6qqgkR/I5k6CzBYNiVSsfnU3xaHWWQPhg59SF7ia8+S2W7gTB+qz3IUIuBxbr0VDg3Jzgyz9M6DSJiIiIKDTI9yXcW0UlQN1pbtw4fTgCEM4fbPS7ajw4SBGadRz7a3j8YBLPhUHau4Z499QQlnSQxfv/jwebNqCfWo+Jaaun6zc36TrwTZNivKgTIiIiIqLQID800SonDrJE5x8wHzs8ZaVILmQ/8MmQ14mRjT5nEjTYQws8+HyBB9TQevYcZ0/V0dU/xIPNOaASl92ksDPH/eXYke+a6aBOiIiIiIhCg/zQVMYyZHFQzCziXzvunQv7g4SXCocFI5M8dhL0QWHWJ5/S1l5Dm+XZOmKkcwZVhTT+Nf8JatfM8EeX6PVm2Lr3e75Z05wGEREREYUGeetq57eJ9tfTOPAr3rUv4U8YVNQ1Ud/ohoXP+HrReeQ7pqeRK72trGUMzHSQ9e0UAGf+3af4shtsbAQIWxtobW+j2ZZhx79Y/uYcm7FBmhsH+fiSg8VAgkJFI031DVTm57n17dKB7UR6eumosABuPFV5QKFBRERERKFBvgczfDddyfUBH00D52gCjEKOTCzAk4D9UNkEU8ubNPT58A1fwgdkVn/H+jaAj2yhgLO2nb6GdgDyqTAbkxPcWdp7lOrCxCOq3x2kvWWQkVbALJBPx9ieWz9Ss+qFTbZ6a2jOrTD90A2GzpaIiIjIj4HR2dlp6jCIiIiIiMjz6OVuIiIiIiKi0CAiIiIiIgoNIiIiIiKi0CAiIiIiIgoNIiIiIiKi0CAiIiIiIgoNIiIiIiKi0CDy/aocuc6HH1ziTEGvGTnoLNdu3OAvL1brUIiIiIhCg/y8NdbWUu00iOut0gdEeqqopEA2vqGDISIiIgoN8nPmo8ppwUjHWLYoNRwIDZVOHKRJrzh0MEREROSNMTo7OzW+Q96CHt759Qi+8BSPCl0MNFXgMMDI77Dyz19xz2oAXppGznOmvQGv3QQzR2LxDrce7gCQ6LjKzQuNeI5Ze3Frkt99swT4uPDLq5zKzPCPX8wc2vaDcpmT1Sdz8S/4O1+U2QVo7fXhtYElvcn0V7eZSZ48b59kPT2/+BvOuja499md3SA0/NFN+o0V/vXWPQIdV7l5wUNyy0ZDoxNLaovVTC1tNTYs6afMfHaHaYtBx7W/YrQqhj/ipKnejdWAQniBe3+aYt3YC1ienstc7vdR7bCCWSATeMTXd5aI76v38Ec36TdXuB2s4lxbNW4bYCbYmvgD3/gVSkRERH5O1NMgb0kNLodJtrKX4aosm4/HuPt4lWAiR7rclq0avcLF7hqssUVmJyaZjxh4e0a51p4FwBV8wsOJce7MBskCyZU7jE+MMz4xzt3phfJ2mvC4TdLp8JFt59Irr1SfIa8T01ZPd4eN0OwY9xZjpF0+us+0vNKev3w9HdS4D/ec9ON1QT4ZJg6Eq114cFGZe8KjUJ6iu5GW3BPG19MUXfU09pSOUaXLhmmvodkbxz81xtRGGmtND0MXbHsXfd91fnGmhYrMBvNTY0wFclibh3l32HYg5HmdkLU3crnVILrwgLGpedbiWQpBq37OIiIiPzM2HQJ5GyI9bjwm2PMbjN96UL7rvc7TecBiEO+8yiftXgr+L/njeKj0pTU7FZ8O4WvrgbU1rIktNhLgH+nnHRJE11bx79gP5N9Ehxc3kE0sQrlPItzrxmPmSEaTgOtE9dkdAlUIsvb1l0ymLICX5o4hfFb3K+z5SdZTg8tpkg7tDzqVuOx7QedypQcjH2bju3k+v9zFcG2SzfuPedjayEirk3zMUgoaTjCym8x/Xe7FWKql+dNeGip6gDkK3hGuD9TjCD7m86/mSj0LixHcH3/CQOMQMHkgVNkzUWb+tNcjsr4IoNAgIiLyc6OeBnk7oaHaiYMUwbmxA8NknrnQ3YQ3v8PGneD+b5HLgcV6cCjMOa8TI58msXk085buyCdIBey7n7mrPThIkZl1nLg+0IjbDoXQermhv68hnw29wp6/fD2loFMgHVna/VaorxR0UpEUALUuG5ZkjAdWgysuF5Z0gs2EhWiVE2f5WBS8NVTYTOJrY/uGT2XJA1ZbKSz5Rtqos8bZnn60byhSgnSuiGmz0lAerFgKWhxal4iIiPxcqadB3orrbhdGbofgiv2YqNpPrcfEtNXT9ZubdB1YZlKMFw980uRxYmQCLFiPNvZLgSJWChTlG+J9LjtGLkp036TpF9cHEh2VeGwmqegjnvVYlHonciTDAZ71WLzMSdZTCjpptnf2LkdPVSnohObsYCsNFUrvbO4GiGIywrLFKO1HNkzAAjsdblwkCD3JsNcb4MJuM8llYqVj53UCDhqu/S03Dlc2VmC7fIiiVU4cJIgcWJeIiIgoNIj8GVW6bBjpJNPHPu2odOe9sDPH/eXYkaVmen/vQ6kBnQ+HD0zaPRAoslsEdoOAj3rP0W2/uD7PeixSBCN7l0ipdyJLZN1+4v0+yXqeDT3aH3SGvM59Qac8/yKxCJzH64JMZBPwUuu2UUzHCBgGXRVObGQpxo3dKzvcW0UllEPLebxOsCT83J0NHKmrkYsdCVXhpEX9kSIiIqLQIG9Daax9PhR7zvIY6ZxBVSGNf83/knWVGtDp1BRQcXSxARRyBMpDjsK9/TS5TfKboVeoz16PRWzFvtuQf52G9EnWYzMAs0C2nF8yvlHaqg0ssVKoKQ0VShGP2MoBK19+D8M5nA7I7DwBoM3rAQpYKkxIAzTzwal6nPlt1ibdYF0nkx0CikTW/MeGrpJSGHlRqBIRERGFBpE36tlY+3TiIeA9psQcm7FBmhsH+fiSg8VAgkJFI031DVTm57n17dKRb7jr3mewfYs4RXIhP5uJciveBNPTyJXeVp7aO/i4uw4HkEzO7G775fU5rsfi9RrSJ1lP3gTTXkPT2S4imTp6uzuoMUxy6VLQKc1bSPJ0xU5o0I3HTBNZcZT3I0sqmgT6qXKagJe6S+foXs5R2d9LlydD6OFdHloNIMF8OEVXayvXrxdYWg4SddXT2lhPg3Wbr76cLAeJVpwOyAdD+vGKiIgIoIEH8hZEWxw4yJGNPT+jLkw8YjluwdUyyMjoRc73tdLgzhDbWD9UcoblQIqit4OB0YtcHB2i11XYXTq9uknc9OIbvsTZLgdbKztkD2375fUpDYF6NuyH/Q3p1Ks0pE+2nsVFP6Gsk6qe87zTV0dhyU/YgHSy9J6J0ryFNAFLaa6DM5cgnLSU5zA8m+DdiNdlEl9dJFrZy8joIKecGbanv+SLhezutpJjk8zsZKH2FAOjF7l8up3mqiKRnfXdnofdUJWc0Y9XREREAL3cTUREREREXkI9DSIiIiIiotAgIiIiIiIKDSIiIiIiotAgIiIiIiIKDSIiIiIiotAgIiIiIiIKDSIiIiIi8hPyg34jtP39/8B/PuM5dtnWv/03/veMV2dQREREROTnHBoy3/0D/+O+9cBnueFP+fsLRQKrLp09EREREZGfe2iwZJPEsvs/cdLXUo9t5zZTCSsYOoEiIiIiIn/2dvmPqbJFxzCDviJbM3eJKDCIiIiIiCg0HBYb7qHdWGfhkeZvi4iIiIgoNBxRxbUBH7aNeSYLCg0iIiIiIgoNh+RqhxmsK7L1ZJKMzpuIiIiIiELDYa6BbhoLT1l4rF4GERERERGFhiPqON1dgz0wp6FJIiIiIiIKDUdlfGcZqS6yPnNXQ5NERERERBQajvINdVNTXGF+2q0zJiIiIiKi0HBYB4NdLuz+GR4YGpokIiIiIvK2GZ2dnaYOg4iIiIiIPI9u3YuIiIiIiEKDiIiIiIgoNIiIiIiIiEKDiIiIiIgoNIiIiIiIiEKDiIiIiIj8uPx/02kz/hmQ+PUAAAAASUVORK5CYII=;" vertex="1" parent="1">
                    <mxGeometry x="989.33" y="45.5" width="781" height="329" as="geometry"/>
                </mxCell>
                <mxCell id="76" value="" style="verticalLabelPosition=bottom;html=1;verticalAlign=top;align=center;strokeColor=none;fillColor=#00BEF2;shape=mxgraph.azure.git_repository;" vertex="1" parent="1">
                    <mxGeometry x="459.33" y="404.5" width="50" height="50" as="geometry"/>
                </mxCell>
                <mxCell id="77" value="" style="verticalLabelPosition=bottom;html=1;verticalAlign=top;align=center;strokeColor=none;fillColor=#00BEF2;shape=mxgraph.azure.git_repository;" vertex="1" parent="1">
                    <mxGeometry x="369.33" y="374.5" width="50" height="50" as="geometry"/>
                </mxCell>
                <mxCell id="78" value="" style="verticalLabelPosition=bottom;html=1;verticalAlign=top;align=center;strokeColor=none;fillColor=#00BEF2;shape=mxgraph.azure.git_repository;" vertex="1" parent="1">
                    <mxGeometry x="490" y="374.5" width="50" height="50" as="geometry"/>
                </mxCell>
                <mxCell id="79" value="" style="verticalLabelPosition=bottom;html=1;verticalAlign=top;align=center;strokeColor=none;fillColor=#00BEF2;shape=mxgraph.azure.git_repository;" vertex="1" parent="1">
                    <mxGeometry x="399.33" y="404.5" width="50" height="50" as="geometry"/>
                </mxCell>
                <mxCell id="80" value="" style="verticalLabelPosition=bottom;html=1;verticalAlign=top;align=center;strokeColor=none;fillColor=#00BEF2;shape=mxgraph.azure.git_repository;" vertex="1" parent="1">
                    <mxGeometry x="339.33" y="404.5" width="50" height="50" as="geometry"/>
                </mxCell>
                <mxCell id="81" value="" style="verticalLabelPosition=bottom;html=1;verticalAlign=top;align=center;strokeColor=none;fillColor=#00BEF2;shape=mxgraph.azure.git_repository;" vertex="1" parent="1">
                    <mxGeometry x="429.33" y="374.5" width="50" height="50" as="geometry"/>
                </mxCell>
                <mxCell id="82" value="" style="verticalLabelPosition=bottom;html=1;verticalAlign=top;align=center;strokeColor=none;fillColor=#00BEF2;shape=mxgraph.azure.git_repository;" vertex="1" parent="1">
                    <mxGeometry x="519.3299999999999" y="404.5" width="50" height="50" as="geometry"/>
                </mxCell>
                <mxCell id="83" value="" style="verticalLabelPosition=bottom;html=1;verticalAlign=top;align=center;strokeColor=none;fillColor=#00BEF2;shape=mxgraph.azure.git_repository;" vertex="1" parent="1">
                    <mxGeometry x="549.3299999999999" y="374.5" width="50" height="50" as="geometry"/>
                </mxCell>
            </root>
        </mxGraphModel>
    </diagram>
</mxfile>
